<?xml version="1.0" encoding="utf-8" standalone="no"?>
<!DOCTYPE svg PUBLIC "-//W3C//DTD SVG 1.1//EN"
  "http://www.w3.org/Graphics/SVG/1.1/DTD/svg11.dtd">
<svg xmlns:xlink="http://www.w3.org/1999/xlink" width="800.39952pt" height="368.39952pt" viewBox="0 0 800.39952 368.39952" xmlns="http://www.w3.org/2000/svg" version="1.1">
 <metadata>
  <rdf:RDF xmlns:dc="http://purl.org/dc/elements/1.1/" xmlns:cc="http://creativecommons.org/ns#" xmlns:rdf="http://www.w3.org/1999/02/22-rdf-syntax-ns#">
   <cc:Work>
    <dc:type rdf:resource="http://purl.org/dc/dcmitype/StillImage"/>
    <dc:format>image/svg+xml</dc:format>
    <dc:creator>
     <cc:Agent>
      <dc:title>Matplotlib v3.11.2, https://matplotlib.org/</dc:title>
     </cc:Agent>
    </dc:creator>
   </cc:Work>
  </rdf:RDF>
 </metadata>
 <defs>
  <style type="text/css">*{stroke-linejoin: round; stroke-linecap: butt}</style>
 </defs>
 <g id="figure_1">
  <g id="patch_1">
   <path d="M 0 368.39952 
L 800.39952 368.39952 
L 800.39952 0 
L 0 0 
z
" style="fill: #ffffff"/>
  </g>
  <g id="axes_1">
   <g id="patch_2">
    <path d="M 49.305469 330.198739 
L 786.83702 330.198739 
L 786.83702 37.922578 
L 49.305469 37.922578 
z
" style="fill: #ffffff"/>
   </g>
   <g id="matplotlib.axis_1">
    <g id="xtick_1">
     <g id="line2d_1">
      <path d="M 49.305469 330.198739 
L 49.305469 37.922578 
" clip-path="url(#p243ded9ec5)" style="fill: none; stroke: #b0b0b0; stroke-opacity: 0.2; stroke-width: 0.8; stroke-linecap: square"/>
     </g>
     <g id="line2d_2">
      <defs>
       <path id="m85c26e8154" d="M 0 0 
L 0 3.5 
" style="stroke: #000000; stroke-width: 0.8"/>
      </defs>
      <g>
       <use xlink:href="#m85c26e8154" x="49.305469" y="330.198739" style="stroke: #000000; stroke-width: 0.8"/>
      </g>
     </g>
     <g id="text_1">
      <!-- 60 -->
      <g transform="translate(42.942969 344.796395) scale(0.1 -0.1)">
       <defs>
        <path id="DejaVuSans-19" d="M 2113 2584 
Q 1688 2584 1439 2293 
Q 1191 2003 1191 1497 
Q 1191 994 1439 701 
Q 1688 409 2113 409 
Q 2538 409 2786 701 
Q 3034 994 3034 1497 
Q 3034 2003 2786 2293 
Q 2538 2584 2113 2584 
z
M 3366 4563 
L 3366 3988 
Q 3128 4100 2886 4159 
Q 2644 4219 2406 4219 
Q 1781 4219 1451 3797 
Q 1122 3375 1075 2522 
Q 1259 2794 1537 2939 
Q 1816 3084 2150 3084 
Q 2853 3084 3261 2657 
Q 3669 2231 3669 1497 
Q 3669 778 3244 343 
Q 2819 -91 2113 -91 
Q 1303 -91 875 529 
Q 447 1150 447 2328 
Q 447 3434 972 4092 
Q 1497 4750 2381 4750 
Q 2619 4750 2861 4703 
Q 3103 4656 3366 4563 
z
" transform="scale(0.015625)"/>
        <path id="DejaVuSans-13" d="M 2034 4250 
Q 1547 4250 1301 3770 
Q 1056 3291 1056 2328 
Q 1056 1369 1301 889 
Q 1547 409 2034 409 
Q 2525 409 2770 889 
Q 3016 1369 3016 2328 
Q 3016 3291 2770 3770 
Q 2525 4250 2034 4250 
z
M 2034 4750 
Q 2819 4750 3233 4129 
Q 3647 3509 3647 2328 
Q 3647 1150 3233 529 
Q 2819 -91 2034 -91 
Q 1250 -91 836 529 
Q 422 1150 422 2328 
Q 422 3509 836 4129 
Q 1250 4750 2034 4750 
z
" transform="scale(0.015625)"/>
       </defs>
       <use xlink:href="#DejaVuSans-19"/>
       <use xlink:href="#DejaVuSans-13" transform="translate(63.625 0)"/>
      </g>
     </g>
    </g>
    <g id="xtick_2">
     <g id="line2d_3">
      <path d="M 154.667119 330.198739 
L 154.667119 37.922578 
" clip-path="url(#p243ded9ec5)" style="fill: none; stroke: #b0b0b0; stroke-opacity: 0.2; stroke-width: 0.8; stroke-linecap: square"/>
     </g>
     <g id="line2d_4">
      <g>
       <use xlink:href="#m85c26e8154" x="154.667119" y="330.198739" style="stroke: #000000; stroke-width: 0.8"/>
      </g>
     </g>
     <g id="text_2">
      <!-- 65 -->
      <g transform="translate(148.304619 344.796395) scale(0.1 -0.1)">
       <defs>
        <path id="DejaVuSans-18" d="M 691 4666 
L 3169 4666 
L 3169 4134 
L 1269 4134 
L 1269 2991 
Q 1406 3038 1543 3061 
Q 1681 3084 1819 3084 
Q 2600 3084 3056 2656 
Q 3513 2228 3513 1497 
Q 3513 744 3044 326 
Q 2575 -91 1722 -91 
Q 1428 -91 1123 -41 
Q 819 9 494 109 
L 494 744 
Q 775 591 1075 516 
Q 1375 441 1709 441 
Q 2250 441 2565 725 
Q 2881 1009 2881 1497 
Q 2881 1984 2565 2268 
Q 2250 2553 1709 2553 
Q 1456 2553 1204 2497 
Q 953 2441 691 2322 
L 691 4666 
z
" transform="scale(0.015625)"/>
       </defs>
       <use xlink:href="#DejaVuSans-19"/>
       <use xlink:href="#DejaVuSans-18" transform="translate(63.625 0)"/>
      </g>
     </g>
    </g>
    <g id="xtick_3">
     <g id="line2d_5">
      <path d="M 260.028769 330.198739 
L 260.028769 37.922578 
" clip-path="url(#p243ded9ec5)" style="fill: none; stroke: #b0b0b0; stroke-opacity: 0.2; stroke-width: 0.8; stroke-linecap: square"/>
     </g>
     <g id="line2d_6">
      <g>
       <use xlink:href="#m85c26e8154" x="260.028769" y="330.198739" style="stroke: #000000; stroke-width: 0.8"/>
      </g>
     </g>
     <g id="text_3">
      <!-- 70 -->
      <g transform="translate(253.666269 344.796395) scale(0.1 -0.1)">
       <defs>
        <path id="DejaVuSans-1a" d="M 525 4666 
L 3525 4666 
L 3525 4397 
L 1831 0 
L 1172 0 
L 2766 4134 
L 525 4134 
L 525 4666 
z
" transform="scale(0.015625)"/>
       </defs>
       <use xlink:href="#DejaVuSans-1a"/>
       <use xlink:href="#DejaVuSans-13" transform="translate(63.625 0)"/>
      </g>
     </g>
    </g>
    <g id="xtick_4">
     <g id="line2d_7">
      <path d="M 365.390419 330.198739 
L 365.390419 37.922578 
" clip-path="url(#p243ded9ec5)" style="fill: none; stroke: #b0b0b0; stroke-opacity: 0.2; stroke-width: 0.8; stroke-linecap: square"/>
     </g>
     <g id="line2d_8">
      <g>
       <use xlink:href="#m85c26e8154" x="365.390419" y="330.198739" style="stroke: #000000; stroke-width: 0.8"/>
      </g>
     </g>
     <g id="text_4">
      <!-- 75 -->
      <g transform="translate(359.027919 344.796395) scale(0.1 -0.1)">
       <use xlink:href="#DejaVuSans-1a"/>
       <use xlink:href="#DejaVuSans-18" transform="translate(63.625 0)"/>
      </g>
     </g>
    </g>
    <g id="xtick_5">
     <g id="line2d_9">
      <path d="M 470.752069 330.198739 
L 470.752069 37.922578 
" clip-path="url(#p243ded9ec5)" style="fill: none; stroke: #b0b0b0; stroke-opacity: 0.2; stroke-width: 0.8; stroke-linecap: square"/>
     </g>
     <g id="line2d_10">
      <g>
       <use xlink:href="#m85c26e8154" x="470.752069" y="330.198739" style="stroke: #000000; stroke-width: 0.8"/>
      </g>
     </g>
     <g id="text_5">
      <!-- 80 -->
      <g transform="translate(464.389569 344.796395) scale(0.1 -0.1)">
       <defs>
        <path id="DejaVuSans-1b" d="M 2034 2216 
Q 1584 2216 1326 1975 
Q 1069 1734 1069 1313 
Q 1069 891 1326 650 
Q 1584 409 2034 409 
Q 2484 409 2743 651 
Q 3003 894 3003 1313 
Q 3003 1734 2745 1975 
Q 2488 2216 2034 2216 
z
M 1403 2484 
Q 997 2584 770 2862 
Q 544 3141 544 3541 
Q 544 4100 942 4425 
Q 1341 4750 2034 4750 
Q 2731 4750 3128 4425 
Q 3525 4100 3525 3541 
Q 3525 3141 3298 2862 
Q 3072 2584 2669 2484 
Q 3125 2378 3379 2068 
Q 3634 1759 3634 1313 
Q 3634 634 3220 271 
Q 2806 -91 2034 -91 
Q 1263 -91 848 271 
Q 434 634 434 1313 
Q 434 1759 690 2068 
Q 947 2378 1403 2484 
z
M 1172 3481 
Q 1172 3119 1398 2916 
Q 1625 2713 2034 2713 
Q 2441 2713 2670 2916 
Q 2900 3119 2900 3481 
Q 2900 3844 2670 4047 
Q 2441 4250 2034 4250 
Q 1625 4250 1398 4047 
Q 1172 3844 1172 3481 
z
" transform="scale(0.015625)"/>
       </defs>
       <use xlink:href="#DejaVuSans-1b"/>
       <use xlink:href="#DejaVuSans-13" transform="translate(63.625 0)"/>
      </g>
     </g>
    </g>
    <g id="xtick_6">
     <g id="line2d_11">
      <path d="M 576.11372 330.198739 
L 576.11372 37.922578 
" clip-path="url(#p243ded9ec5)" style="fill: none; stroke: #b0b0b0; stroke-opacity: 0.2; stroke-width: 0.8; stroke-linecap: square"/>
     </g>
     <g id="line2d_12">
      <g>
       <use xlink:href="#m85c26e8154" x="576.11372" y="330.198739" style="stroke: #000000; stroke-width: 0.8"/>
      </g>
     </g>
     <g id="text_6">
      <!-- 85 -->
      <g transform="translate(569.75122 344.796395) scale(0.1 -0.1)">
       <use xlink:href="#DejaVuSans-1b"/>
       <use xlink:href="#DejaVuSans-18" transform="translate(63.625 0)"/>
      </g>
     </g>
    </g>
    <g id="xtick_7">
     <g id="line2d_13">
      <path d="M 681.47537 330.198739 
L 681.47537 37.922578 
" clip-path="url(#p243ded9ec5)" style="fill: none; stroke: #b0b0b0; stroke-opacity: 0.2; stroke-width: 0.8; stroke-linecap: square"/>
     </g>
     <g id="line2d_14">
      <g>
       <use xlink:href="#m85c26e8154" x="681.47537" y="330.198739" style="stroke: #000000; stroke-width: 0.8"/>
      </g>
     </g>
     <g id="text_7">
      <!-- 90 -->
      <g transform="translate(675.11287 344.796395) scale(0.1 -0.1)">
       <defs>
        <path id="DejaVuSans-1c" d="M 703 97 
L 703 672 
Q 941 559 1184 500 
Q 1428 441 1663 441 
Q 2288 441 2617 861 
Q 2947 1281 2994 2138 
Q 2813 1869 2534 1725 
Q 2256 1581 1919 1581 
Q 1219 1581 811 2004 
Q 403 2428 403 3163 
Q 403 3881 828 4315 
Q 1253 4750 1959 4750 
Q 2769 4750 3195 4129 
Q 3622 3509 3622 2328 
Q 3622 1225 3098 567 
Q 2575 -91 1691 -91 
Q 1453 -91 1209 -44 
Q 966 3 703 97 
z
M 1959 2075 
Q 2384 2075 2632 2365 
Q 2881 2656 2881 3163 
Q 2881 3666 2632 3958 
Q 2384 4250 1959 4250 
Q 1534 4250 1286 3958 
Q 1038 3666 1038 3163 
Q 1038 2656 1286 2365 
Q 1534 2075 1959 2075 
z
" transform="scale(0.015625)"/>
       </defs>
       <use xlink:href="#DejaVuSans-1c"/>
       <use xlink:href="#DejaVuSans-13" transform="translate(63.625 0)"/>
      </g>
     </g>
    </g>
    <g id="xtick_8">
     <g id="line2d_15">
      <path d="M 786.83702 330.198739 
L 786.83702 37.922578 
" clip-path="url(#p243ded9ec5)" style="fill: none; stroke: #b0b0b0; stroke-opacity: 0.2; stroke-width: 0.8; stroke-linecap: square"/>
     </g>
     <g id="line2d_16">
      <g>
       <use xlink:href="#m85c26e8154" x="786.83702" y="330.198739" style="stroke: #000000; stroke-width: 0.8"/>
      </g>
     </g>
     <g id="text_8">
      <!-- 95 -->
      <g transform="translate(780.47452 344.796395) scale(0.1 -0.1)">
       <use xlink:href="#DejaVuSans-1c"/>
       <use xlink:href="#DejaVuSans-18" transform="translate(63.625 0)"/>
      </g>
     </g>
    </g>
    <g id="text_9">
     <!-- Total TX–surface–RX path length cτ (m) -->
     <g transform="translate(319.755619 358.797176) scale(0.1 -0.1)">
      <defs>
       <path id="DejaVuSans-37" d="M -19 4666 
L 3928 4666 
L 3928 4134 
L 2272 4134 
L 2272 0 
L 1638 0 
L 1638 4134 
L -19 4134 
L -19 4666 
z
" transform="scale(0.015625)"/>
       <path id="DejaVuSans-52" d="M 1959 3097 
Q 1497 3097 1228 2736 
Q 959 2375 959 1747 
Q 959 1119 1226 758 
Q 1494 397 1959 397 
Q 2419 397 2687 759 
Q 2956 1122 2956 1747 
Q 2956 2369 2687 2733 
Q 2419 3097 1959 3097 
z
M 1959 3584 
Q 2709 3584 3137 3096 
Q 3566 2609 3566 1747 
Q 3566 888 3137 398 
Q 2709 -91 1959 -91 
Q 1206 -91 779 398 
Q 353 888 353 1747 
Q 353 2609 779 3096 
Q 1206 3584 1959 3584 
z
" transform="scale(0.015625)"/>
       <path id="DejaVuSans-57" d="M 1172 4494 
L 1172 3500 
L 2356 3500 
L 2356 3053 
L 1172 3053 
L 1172 1153 
Q 1172 725 1289 603 
Q 1406 481 1766 481 
L 2356 481 
L 2356 0 
L 1766 0 
Q 1100 0 847 248 
Q 594 497 594 1153 
L 594 3053 
L 172 3053 
L 172 3500 
L 594 3500 
L 594 4494 
L 1172 4494 
z
" transform="scale(0.015625)"/>
       <path id="DejaVuSans-44" d="M 2194 1759 
Q 1497 1759 1228 1600 
Q 959 1441 959 1056 
Q 959 750 1161 570 
Q 1363 391 1709 391 
Q 2188 391 2477 730 
Q 2766 1069 2766 1631 
L 2766 1759 
L 2194 1759 
z
M 3341 1997 
L 3341 0 
L 2766 0 
L 2766 531 
Q 2569 213 2275 61 
Q 1981 -91 1556 -91 
Q 1019 -91 701 211 
Q 384 513 384 1019 
Q 384 1609 779 1909 
Q 1175 2209 1959 2209 
L 2766 2209 
L 2766 2266 
Q 2766 2663 2505 2880 
Q 2244 3097 1772 3097 
Q 1472 3097 1187 3025 
Q 903 2953 641 2809 
L 641 3341 
Q 956 3463 1253 3523 
Q 1550 3584 1831 3584 
Q 2591 3584 2966 3190 
Q 3341 2797 3341 1997 
z
" transform="scale(0.015625)"/>
       <path id="DejaVuSans-4f" d="M 603 4863 
L 1178 4863 
L 1178 0 
L 603 0 
L 603 4863 
z
" transform="scale(0.015625)"/>
       <path id="DejaVuSans-3" transform="scale(0.015625)"/>
       <path id="DejaVuSans-3b" d="M 403 4666 
L 1081 4666 
L 2241 2931 
L 3406 4666 
L 4084 4666 
L 2584 2425 
L 4184 0 
L 3506 0 
L 2194 1984 
L 872 0 
L 191 0 
L 1856 2491 
L 403 4666 
z
" transform="scale(0.015625)"/>
       <path id="DejaVuSans-af5" d="M 313 1978 
L 2888 1978 
L 2888 1528 
L 313 1528 
L 313 1978 
z
" transform="scale(0.015625)"/>
       <path id="DejaVuSans-56" d="M 2834 3397 
L 2834 2853 
Q 2591 2978 2328 3040 
Q 2066 3103 1784 3103 
Q 1356 3103 1142 2972 
Q 928 2841 928 2578 
Q 928 2378 1081 2264 
Q 1234 2150 1697 2047 
L 1894 2003 
Q 2506 1872 2764 1633 
Q 3022 1394 3022 966 
Q 3022 478 2636 193 
Q 2250 -91 1575 -91 
Q 1294 -91 989 -36 
Q 684 19 347 128 
L 347 722 
Q 666 556 975 473 
Q 1284 391 1588 391 
Q 1994 391 2212 530 
Q 2431 669 2431 922 
Q 2431 1156 2273 1281 
Q 2116 1406 1581 1522 
L 1381 1569 
Q 847 1681 609 1914 
Q 372 2147 372 2553 
Q 372 3047 722 3315 
Q 1072 3584 1716 3584 
Q 2034 3584 2315 3537 
Q 2597 3491 2834 3397 
z
" transform="scale(0.015625)"/>
       <path id="DejaVuSans-58" d="M 544 1381 
L 544 3500 
L 1119 3500 
L 1119 1403 
Q 1119 906 1312 657 
Q 1506 409 1894 409 
Q 2359 409 2629 706 
Q 2900 1003 2900 1516 
L 2900 3500 
L 3475 3500 
L 3475 0 
L 2900 0 
L 2900 538 
Q 2691 219 2414 64 
Q 2138 -91 1772 -91 
Q 1169 -91 856 284 
Q 544 659 544 1381 
z
M 1991 3584 
L 1991 3584 
z
" transform="scale(0.015625)"/>
       <path id="DejaVuSans-55" d="M 2631 2963 
Q 2534 3019 2420 3045 
Q 2306 3072 2169 3072 
Q 1681 3072 1420 2755 
Q 1159 2438 1159 1844 
L 1159 0 
L 581 0 
L 581 3500 
L 1159 3500 
L 1159 2956 
Q 1341 3275 1631 3429 
Q 1922 3584 2338 3584 
Q 2397 3584 2469 3576 
Q 2541 3569 2628 3553 
L 2631 2963 
z
" transform="scale(0.015625)"/>
       <path id="DejaVuSans-49" d="M 2375 4863 
L 2375 4384 
L 1825 4384 
Q 1516 4384 1395 4259 
Q 1275 4134 1275 3809 
L 1275 3500 
L 2222 3500 
L 2222 3053 
L 1275 3053 
L 1275 0 
L 697 0 
L 697 3053 
L 147 3053 
L 147 3500 
L 697 3500 
L 697 3744 
Q 697 4328 969 4595 
Q 1241 4863 1831 4863 
L 2375 4863 
z
" transform="scale(0.015625)"/>
       <path id="DejaVuSans-46" d="M 3122 3366 
L 3122 2828 
Q 2878 2963 2633 3030 
Q 2388 3097 2138 3097 
Q 1578 3097 1268 2742 
Q 959 2388 959 1747 
Q 959 1106 1268 751 
Q 1578 397 2138 397 
Q 2388 397 2633 464 
Q 2878 531 3122 666 
L 3122 134 
Q 2881 22 2623 -34 
Q 2366 -91 2075 -91 
Q 1284 -91 818 406 
Q 353 903 353 1747 
Q 353 2603 823 3093 
Q 1294 3584 2113 3584 
Q 2378 3584 2631 3529 
Q 2884 3475 3122 3366 
z
" transform="scale(0.015625)"/>
       <path id="DejaVuSans-48" d="M 3597 1894 
L 3597 1613 
L 953 1613 
Q 991 1019 1311 708 
Q 1631 397 2203 397 
Q 2534 397 2845 478 
Q 3156 559 3463 722 
L 3463 178 
Q 3153 47 2828 -22 
Q 2503 -91 2169 -91 
Q 1331 -91 842 396 
Q 353 884 353 1716 
Q 353 2575 817 3079 
Q 1281 3584 2069 3584 
Q 2775 3584 3186 3129 
Q 3597 2675 3597 1894 
z
M 3022 2063 
Q 3016 2534 2758 2815 
Q 2500 3097 2075 3097 
Q 1594 3097 1305 2825 
Q 1016 2553 972 2059 
L 3022 2063 
z
" transform="scale(0.015625)"/>
       <path id="DejaVuSans-35" d="M 2841 2188 
Q 3044 2119 3236 1894 
Q 3428 1669 3622 1275 
L 4263 0 
L 3584 0 
L 2988 1197 
Q 2756 1666 2539 1819 
Q 2322 1972 1947 1972 
L 1259 1972 
L 1259 0 
L 628 0 
L 628 4666 
L 2053 4666 
Q 2853 4666 3247 4331 
Q 3641 3997 3641 3322 
Q 3641 2881 3436 2590 
Q 3231 2300 2841 2188 
z
M 1259 4147 
L 1259 2491 
L 2053 2491 
Q 2509 2491 2742 2702 
Q 2975 2913 2975 3322 
Q 2975 3731 2742 3939 
Q 2509 4147 2053 4147 
L 1259 4147 
z
" transform="scale(0.015625)"/>
       <path id="DejaVuSans-53" d="M 1159 525 
L 1159 -1331 
L 581 -1331 
L 581 3500 
L 1159 3500 
L 1159 2969 
Q 1341 3281 1617 3432 
Q 1894 3584 2278 3584 
Q 2916 3584 3314 3078 
Q 3713 2572 3713 1747 
Q 3713 922 3314 415 
Q 2916 -91 2278 -91 
Q 1894 -91 1617 61 
Q 1341 213 1159 525 
z
M 3116 1747 
Q 3116 2381 2855 2742 
Q 2594 3103 2138 3103 
Q 1681 3103 1420 2742 
Q 1159 2381 1159 1747 
Q 1159 1113 1420 752 
Q 1681 391 2138 391 
Q 2594 391 2855 752 
Q 3116 1113 3116 1747 
z
" transform="scale(0.015625)"/>
       <path id="DejaVuSans-4b" d="M 3513 2113 
L 3513 0 
L 2938 0 
L 2938 2094 
Q 2938 2591 2744 2837 
Q 2550 3084 2163 3084 
Q 1697 3084 1428 2787 
Q 1159 2491 1159 1978 
L 1159 0 
L 581 0 
L 581 4863 
L 1159 4863 
L 1159 2956 
Q 1366 3272 1645 3428 
Q 1925 3584 2291 3584 
Q 2894 3584 3203 3211 
Q 3513 2838 3513 2113 
z
" transform="scale(0.015625)"/>
       <path id="DejaVuSans-51" d="M 3513 2113 
L 3513 0 
L 2938 0 
L 2938 2094 
Q 2938 2591 2744 2837 
Q 2550 3084 2163 3084 
Q 1697 3084 1428 2787 
Q 1159 2491 1159 1978 
L 1159 0 
L 581 0 
L 581 3500 
L 1159 3500 
L 1159 2956 
Q 1366 3272 1645 3428 
Q 1925 3584 2291 3584 
Q 2894 3584 3203 3211 
Q 3513 2838 3513 2113 
z
" transform="scale(0.015625)"/>
       <path id="DejaVuSans-4a" d="M 2906 1791 
Q 2906 2416 2648 2759 
Q 2391 3103 1925 3103 
Q 1463 3103 1205 2759 
Q 947 2416 947 1791 
Q 947 1169 1205 825 
Q 1463 481 1925 481 
Q 2391 481 2648 825 
Q 2906 1169 2906 1791 
z
M 3481 434 
Q 3481 -459 3084 -895 
Q 2688 -1331 1869 -1331 
Q 1566 -1331 1297 -1286 
Q 1028 -1241 775 -1147 
L 775 -588 
Q 1028 -725 1275 -790 
Q 1522 -856 1778 -856 
Q 2344 -856 2625 -561 
Q 2906 -266 2906 331 
L 2906 616 
Q 2728 306 2450 153 
Q 2172 0 1784 0 
Q 1141 0 747 490 
Q 353 981 353 1791 
Q 353 2603 747 3093 
Q 1141 3584 1784 3584 
Q 2172 3584 2450 3431 
Q 2728 3278 2906 2969 
L 2906 3500 
L 3481 3500 
L 3481 434 
z
" transform="scale(0.015625)"/>
       <path id="DejaVuSans-358" d="M 2319 638 
Q 2431 488 2769 488 
L 3047 488 
L 3047 0 
L 2700 0 
Q 2138 0 1881 300 
Q 1625 606 1625 1269 
L 1625 2925 
L 313 2925 
L 313 3500 
L 3541 3500 
L 3541 2925 
L 2213 2925 
L 2213 1234 
Q 2213 781 2319 638 
z
" transform="scale(0.015625)"/>
       <path id="DejaVuSans-b" d="M 1984 4856 
Q 1566 4138 1362 3434 
Q 1159 2731 1159 2009 
Q 1159 1288 1364 580 
Q 1569 -128 1984 -844 
L 1484 -844 
Q 1016 -109 783 600 
Q 550 1309 550 2009 
Q 550 2706 781 3412 
Q 1013 4119 1484 4856 
L 1984 4856 
z
" transform="scale(0.015625)"/>
       <path id="DejaVuSans-50" d="M 3328 2828 
Q 3544 3216 3844 3400 
Q 4144 3584 4550 3584 
Q 5097 3584 5394 3201 
Q 5691 2819 5691 2113 
L 5691 0 
L 5113 0 
L 5113 2094 
Q 5113 2597 4934 2840 
Q 4756 3084 4391 3084 
Q 3944 3084 3684 2787 
Q 3425 2491 3425 1978 
L 3425 0 
L 2847 0 
L 2847 2094 
Q 2847 2600 2669 2842 
Q 2491 3084 2119 3084 
Q 1678 3084 1418 2786 
Q 1159 2488 1159 1978 
L 1159 0 
L 581 0 
L 581 3500 
L 1159 3500 
L 1159 2956 
Q 1356 3278 1631 3431 
Q 1906 3584 2284 3584 
Q 2666 3584 2933 3390 
Q 3200 3197 3328 2828 
z
" transform="scale(0.015625)"/>
       <path id="DejaVuSans-c" d="M 513 4856 
L 1013 4856 
Q 1481 4119 1714 3412 
Q 1947 2706 1947 2009 
Q 1947 1309 1714 600 
Q 1481 -109 1013 -844 
L 513 -844 
Q 928 -128 1133 580 
Q 1338 1288 1338 2009 
Q 1338 2731 1133 3434 
Q 928 4138 513 4856 
z
" transform="scale(0.015625)"/>
      </defs>
      <use xlink:href="#DejaVuSans-37"/>
      <use xlink:href="#DejaVuSans-52" transform="translate(44.09375 0)"/>
      <use xlink:href="#DejaVuSans-57" transform="translate(105.28125 0)"/>
      <use xlink:href="#DejaVuSans-44" transform="translate(144.484375 0)"/>
      <use xlink:href="#DejaVuSans-4f" transform="translate(205.765625 0)"/>
      <use xlink:href="#DejaVuSans-3" transform="translate(233.546875 0)"/>
      <use xlink:href="#DejaVuSans-37" transform="translate(265.328125 0)"/>
      <use xlink:href="#DejaVuSans-3b" transform="translate(326.40625 0)"/>
      <use xlink:href="#DejaVuSans-af5" transform="translate(394.90625 0)"/>
      <use xlink:href="#DejaVuSans-56" transform="translate(444.90625 0)"/>
      <use xlink:href="#DejaVuSans-58" transform="translate(497 0)"/>
      <use xlink:href="#DejaVuSans-55" transform="translate(560.375 0)"/>
      <use xlink:href="#DejaVuSans-49" transform="translate(601.484375 0)"/>
      <use xlink:href="#DejaVuSans-44" transform="translate(636.6875 0)"/>
      <use xlink:href="#DejaVuSans-46" transform="translate(697.96875 0)"/>
      <use xlink:href="#DejaVuSans-48" transform="translate(752.953125 0)"/>
      <use xlink:href="#DejaVuSans-af5" transform="translate(814.484375 0)"/>
      <use xlink:href="#DejaVuSans-35" transform="translate(864.484375 0)"/>
      <use xlink:href="#DejaVuSans-3b" transform="translate(933.96875 0)"/>
      <use xlink:href="#DejaVuSans-3" transform="translate(1002.46875 0)"/>
      <use xlink:href="#DejaVuSans-53" transform="translate(1034.25 0)"/>
      <use xlink:href="#DejaVuSans-44" transform="translate(1097.734375 0)"/>
      <use xlink:href="#DejaVuSans-57" transform="translate(1159.015625 0)"/>
      <use xlink:href="#DejaVuSans-4b" transform="translate(1198.21875 0)"/>
      <use xlink:href="#DejaVuSans-3" transform="translate(1261.59375 0)"/>
      <use xlink:href="#DejaVuSans-4f" transform="translate(1293.375 0)"/>
      <use xlink:href="#DejaVuSans-48" transform="translate(1321.15625 0)"/>
      <use xlink:href="#DejaVuSans-51" transform="translate(1382.6875 0)"/>
      <use xlink:href="#DejaVuSans-4a" transform="translate(1446.0625 0)"/>
      <use xlink:href="#DejaVuSans-57" transform="translate(1509.546875 0)"/>
      <use xlink:href="#DejaVuSans-4b" transform="translate(1548.75 0)"/>
      <use xlink:href="#DejaVuSans-3" transform="translate(1612.125 0)"/>
      <use xlink:href="#DejaVuSans-46" transform="translate(1643.90625 0)"/>
      <use xlink:href="#DejaVuSans-358" transform="translate(1698.890625 0)"/>
      <use xlink:href="#DejaVuSans-3" transform="translate(1759.09375 0)"/>
      <use xlink:href="#DejaVuSans-b" transform="translate(1790.875 0)"/>
      <use xlink:href="#DejaVuSans-50" transform="translate(1829.890625 0)"/>
      <use xlink:href="#DejaVuSans-c" transform="translate(1927.296875 0)"/>
     </g>
    </g>
   </g>
   <g id="matplotlib.axis_2">
    <g id="ytick_1">
     <g id="line2d_17">
      <path d="M 49.305469 299.753305 
L 786.83702 299.753305 
" clip-path="url(#p243ded9ec5)" style="fill: none; stroke: #b0b0b0; stroke-opacity: 0.2; stroke-width: 0.8; stroke-linecap: square"/>
     </g>
     <g id="line2d_18">
      <defs>
       <path id="mfa057c9ed1" d="M 0 0 
L -3.5 0 
" style="stroke: #000000; stroke-width: 0.8"/>
      </defs>
      <g>
       <use xlink:href="#mfa057c9ed1" x="49.305469" y="299.753305" style="stroke: #000000; stroke-width: 0.8"/>
      </g>
     </g>
     <g id="text_10">
      <!-- −40 -->
      <g transform="translate(21.200781 303.552133) scale(0.1 -0.1)">
       <defs>
        <path id="DejaVuSans-c9c" d="M 678 2272 
L 4684 2272 
L 4684 1741 
L 678 1741 
L 678 2272 
z
" transform="scale(0.015625)"/>
        <path id="DejaVuSans-17" d="M 2419 4116 
L 825 1625 
L 2419 1625 
L 2419 4116 
z
M 2253 4666 
L 3047 4666 
L 3047 1625 
L 3713 1625 
L 3713 1100 
L 3047 1100 
L 3047 0 
L 2419 0 
L 2419 1100 
L 313 1100 
L 313 1709 
L 2253 4666 
z
" transform="scale(0.015625)"/>
       </defs>
       <use xlink:href="#DejaVuSans-c9c"/>
       <use xlink:href="#DejaVuSans-17" transform="translate(83.796875 0)"/>
       <use xlink:href="#DejaVuSans-13" transform="translate(147.421875 0)"/>
      </g>
     </g>
    </g>
    <g id="ytick_2">
     <g id="line2d_19">
      <path d="M 49.305469 238.862439 
L 786.83702 238.862439 
" clip-path="url(#p243ded9ec5)" style="fill: none; stroke: #b0b0b0; stroke-opacity: 0.2; stroke-width: 0.8; stroke-linecap: square"/>
     </g>
     <g id="line2d_20">
      <g>
       <use xlink:href="#mfa057c9ed1" x="49.305469" y="238.862439" style="stroke: #000000; stroke-width: 0.8"/>
      </g>
     </g>
     <g id="text_11">
      <!-- −30 -->
      <g transform="translate(21.200781 242.661267) scale(0.1 -0.1)">
       <defs>
        <path id="DejaVuSans-16" d="M 2597 2516 
Q 3050 2419 3304 2112 
Q 3559 1806 3559 1356 
Q 3559 666 3084 287 
Q 2609 -91 1734 -91 
Q 1441 -91 1130 -33 
Q 819 25 488 141 
L 488 750 
Q 750 597 1062 519 
Q 1375 441 1716 441 
Q 2309 441 2620 675 
Q 2931 909 2931 1356 
Q 2931 1769 2642 2001 
Q 2353 2234 1838 2234 
L 1294 2234 
L 1294 2753 
L 1863 2753 
Q 2328 2753 2575 2939 
Q 2822 3125 2822 3475 
Q 2822 3834 2567 4026 
Q 2313 4219 1838 4219 
Q 1578 4219 1281 4162 
Q 984 4106 628 3988 
L 628 4550 
Q 988 4650 1302 4700 
Q 1616 4750 1894 4750 
Q 2613 4750 3031 4423 
Q 3450 4097 3450 3541 
Q 3450 3153 3228 2886 
Q 3006 2619 2597 2516 
z
" transform="scale(0.015625)"/>
       </defs>
       <use xlink:href="#DejaVuSans-c9c"/>
       <use xlink:href="#DejaVuSans-16" transform="translate(83.796875 0)"/>
       <use xlink:href="#DejaVuSans-13" transform="translate(147.421875 0)"/>
      </g>
     </g>
    </g>
    <g id="ytick_3">
     <g id="line2d_21">
      <path d="M 49.305469 177.971572 
L 786.83702 177.971572 
" clip-path="url(#p243ded9ec5)" style="fill: none; stroke: #b0b0b0; stroke-opacity: 0.2; stroke-width: 0.8; stroke-linecap: square"/>
     </g>
     <g id="line2d_22">
      <g>
       <use xlink:href="#mfa057c9ed1" x="49.305469" y="177.971572" style="stroke: #000000; stroke-width: 0.8"/>
      </g>
     </g>
     <g id="text_12">
      <!-- −20 -->
      <g transform="translate(21.200781 181.7704) scale(0.1 -0.1)">
       <defs>
        <path id="DejaVuSans-15" d="M 1228 531 
L 3431 531 
L 3431 0 
L 469 0 
L 469 531 
Q 828 903 1448 1529 
Q 2069 2156 2228 2338 
Q 2531 2678 2651 2914 
Q 2772 3150 2772 3378 
Q 2772 3750 2511 3984 
Q 2250 4219 1831 4219 
Q 1534 4219 1204 4116 
Q 875 4013 500 3803 
L 500 4441 
Q 881 4594 1212 4672 
Q 1544 4750 1819 4750 
Q 2544 4750 2975 4387 
Q 3406 4025 3406 3419 
Q 3406 3131 3298 2873 
Q 3191 2616 2906 2266 
Q 2828 2175 2409 1742 
Q 1991 1309 1228 531 
z
" transform="scale(0.015625)"/>
       </defs>
       <use xlink:href="#DejaVuSans-c9c"/>
       <use xlink:href="#DejaVuSans-15" transform="translate(83.796875 0)"/>
       <use xlink:href="#DejaVuSans-13" transform="translate(147.421875 0)"/>
      </g>
     </g>
    </g>
    <g id="ytick_4">
     <g id="line2d_23">
      <path d="M 49.305469 117.080705 
L 786.83702 117.080705 
" clip-path="url(#p243ded9ec5)" style="fill: none; stroke: #b0b0b0; stroke-opacity: 0.2; stroke-width: 0.8; stroke-linecap: square"/>
     </g>
     <g id="line2d_24">
      <g>
       <use xlink:href="#mfa057c9ed1" x="49.305469" y="117.080705" style="stroke: #000000; stroke-width: 0.8"/>
      </g>
     </g>
     <g id="text_13">
      <!-- −10 -->
      <g transform="translate(21.200781 120.879533) scale(0.1 -0.1)">
       <defs>
        <path id="DejaVuSans-14" d="M 794 531 
L 1825 531 
L 1825 4091 
L 703 3866 
L 703 4441 
L 1819 4666 
L 2450 4666 
L 2450 531 
L 3481 531 
L 3481 0 
L 794 0 
L 794 531 
z
" transform="scale(0.015625)"/>
       </defs>
       <use xlink:href="#DejaVuSans-c9c"/>
       <use xlink:href="#DejaVuSans-14" transform="translate(83.796875 0)"/>
       <use xlink:href="#DejaVuSans-13" transform="translate(147.421875 0)"/>
      </g>
     </g>
    </g>
    <g id="ytick_5">
     <g id="line2d_25">
      <path d="M 49.305469 56.189838 
L 786.83702 56.189838 
" clip-path="url(#p243ded9ec5)" style="fill: none; stroke: #b0b0b0; stroke-opacity: 0.2; stroke-width: 0.8; stroke-linecap: square"/>
     </g>
     <g id="line2d_26">
      <g>
       <use xlink:href="#mfa057c9ed1" x="49.305469" y="56.189838" style="stroke: #000000; stroke-width: 0.8"/>
      </g>
     </g>
     <g id="text_14">
      <!-- 0 -->
      <g transform="translate(35.942969 59.988666) scale(0.1 -0.1)">
       <use xlink:href="#DejaVuSans-13"/>
      </g>
     </g>
    </g>
    <g id="text_15">
     <!-- Compressed voltage power (dB, shared reference) -->
     <g transform="translate(14.798438 310.224721) rotate(-90) scale(0.1 -0.1)">
      <defs>
       <path id="DejaVuSans-26" d="M 4122 4306 
L 4122 3641 
Q 3803 3938 3442 4084 
Q 3081 4231 2675 4231 
Q 1875 4231 1450 3742 
Q 1025 3253 1025 2328 
Q 1025 1406 1450 917 
Q 1875 428 2675 428 
Q 3081 428 3442 575 
Q 3803 722 4122 1019 
L 4122 359 
Q 3791 134 3420 21 
Q 3050 -91 2638 -91 
Q 1578 -91 968 557 
Q 359 1206 359 2328 
Q 359 3453 968 4101 
Q 1578 4750 2638 4750 
Q 3056 4750 3426 4639 
Q 3797 4528 4122 4306 
z
" transform="scale(0.015625)"/>
       <path id="DejaVuSans-47" d="M 2906 2969 
L 2906 4863 
L 3481 4863 
L 3481 0 
L 2906 0 
L 2906 525 
Q 2725 213 2448 61 
Q 2172 -91 1784 -91 
Q 1150 -91 751 415 
Q 353 922 353 1747 
Q 353 2572 751 3078 
Q 1150 3584 1784 3584 
Q 2172 3584 2448 3432 
Q 2725 3281 2906 2969 
z
M 947 1747 
Q 947 1113 1208 752 
Q 1469 391 1925 391 
Q 2381 391 2643 752 
Q 2906 1113 2906 1747 
Q 2906 2381 2643 2742 
Q 2381 3103 1925 3103 
Q 1469 3103 1208 2742 
Q 947 2381 947 1747 
z
" transform="scale(0.015625)"/>
       <path id="DejaVuSans-59" d="M 191 3500 
L 800 3500 
L 1894 563 
L 2988 3500 
L 3597 3500 
L 2284 0 
L 1503 0 
L 191 3500 
z
" transform="scale(0.015625)"/>
       <path id="DejaVuSans-5a" d="M 269 3500 
L 844 3500 
L 1563 769 
L 2278 3500 
L 2956 3500 
L 3675 769 
L 4391 3500 
L 4966 3500 
L 4050 0 
L 3372 0 
L 2619 2869 
L 1863 0 
L 1184 0 
L 269 3500 
z
" transform="scale(0.015625)"/>
       <path id="DejaVuSans-25" d="M 1259 2228 
L 1259 519 
L 2272 519 
Q 2781 519 3026 730 
Q 3272 941 3272 1375 
Q 3272 1813 3026 2020 
Q 2781 2228 2272 2228 
L 1259 2228 
z
M 1259 4147 
L 1259 2741 
L 2194 2741 
Q 2656 2741 2882 2914 
Q 3109 3088 3109 3444 
Q 3109 3797 2882 3972 
Q 2656 4147 2194 4147 
L 1259 4147 
z
M 628 4666 
L 2241 4666 
Q 2963 4666 3353 4366 
Q 3744 4066 3744 3513 
Q 3744 3084 3544 2831 
Q 3344 2578 2956 2516 
Q 3422 2416 3680 2098 
Q 3938 1781 3938 1306 
Q 3938 681 3513 340 
Q 3088 0 2303 0 
L 628 0 
L 628 4666 
z
" transform="scale(0.015625)"/>
       <path id="DejaVuSans-f" d="M 750 794 
L 1409 794 
L 1409 256 
L 897 -744 
L 494 -744 
L 750 256 
L 750 794 
z
" transform="scale(0.015625)"/>
      </defs>
      <use xlink:href="#DejaVuSans-26"/>
      <use xlink:href="#DejaVuSans-52" transform="translate(69.828125 0)"/>
      <use xlink:href="#DejaVuSans-50" transform="translate(131.015625 0)"/>
      <use xlink:href="#DejaVuSans-53" transform="translate(228.421875 0)"/>
      <use xlink:href="#DejaVuSans-55" transform="translate(291.90625 0)"/>
      <use xlink:href="#DejaVuSans-48" transform="translate(330.8125 0)"/>
      <use xlink:href="#DejaVuSans-56" transform="translate(392.34375 0)"/>
      <use xlink:href="#DejaVuSans-56" transform="translate(444.4375 0)"/>
      <use xlink:href="#DejaVuSans-48" transform="translate(496.53125 0)"/>
      <use xlink:href="#DejaVuSans-47" transform="translate(558.0625 0)"/>
      <use xlink:href="#DejaVuSans-3" transform="translate(621.546875 0)"/>
      <use xlink:href="#DejaVuSans-59" transform="translate(653.328125 0)"/>
      <use xlink:href="#DejaVuSans-52" transform="translate(712.515625 0)"/>
      <use xlink:href="#DejaVuSans-4f" transform="translate(773.703125 0)"/>
      <use xlink:href="#DejaVuSans-57" transform="translate(801.484375 0)"/>
      <use xlink:href="#DejaVuSans-44" transform="translate(840.6875 0)"/>
      <use xlink:href="#DejaVuSans-4a" transform="translate(901.96875 0)"/>
      <use xlink:href="#DejaVuSans-48" transform="translate(965.453125 0)"/>
      <use xlink:href="#DejaVuSans-3" transform="translate(1026.984375 0)"/>
      <use xlink:href="#DejaVuSans-53" transform="translate(1058.765625 0)"/>
      <use xlink:href="#DejaVuSans-52" transform="translate(1122.25 0)"/>
      <use xlink:href="#DejaVuSans-5a" transform="translate(1183.4375 0)"/>
      <use xlink:href="#DejaVuSans-48" transform="translate(1265.21875 0)"/>
      <use xlink:href="#DejaVuSans-55" transform="translate(1326.75 0)"/>
      <use xlink:href="#DejaVuSans-3" transform="translate(1367.859375 0)"/>
      <use xlink:href="#DejaVuSans-b" transform="translate(1399.640625 0)"/>
      <use xlink:href="#DejaVuSans-47" transform="translate(1438.65625 0)"/>
      <use xlink:href="#DejaVuSans-25" transform="translate(1502.140625 0)"/>
      <use xlink:href="#DejaVuSans-f" transform="translate(1570.75 0)"/>
      <use xlink:href="#DejaVuSans-3" transform="translate(1602.53125 0)"/>
      <use xlink:href="#DejaVuSans-56" transform="translate(1634.3125 0)"/>
      <use xlink:href="#DejaVuSans-4b" transform="translate(1686.40625 0)"/>
      <use xlink:href="#DejaVuSans-44" transform="translate(1749.78125 0)"/>
      <use xlink:href="#DejaVuSans-55" transform="translate(1811.0625 0)"/>
      <use xlink:href="#DejaVuSans-48" transform="translate(1849.96875 0)"/>
      <use xlink:href="#DejaVuSans-47" transform="translate(1911.5 0)"/>
      <use xlink:href="#DejaVuSans-3" transform="translate(1974.984375 0)"/>
      <use xlink:href="#DejaVuSans-55" transform="translate(2006.765625 0)"/>
      <use xlink:href="#DejaVuSans-48" transform="translate(2045.671875 0)"/>
      <use xlink:href="#DejaVuSans-49" transform="translate(2107.203125 0)"/>
      <use xlink:href="#DejaVuSans-48" transform="translate(2142.40625 0)"/>
      <use xlink:href="#DejaVuSans-55" transform="translate(2203.9375 0)"/>
      <use xlink:href="#DejaVuSans-48" transform="translate(2242.84375 0)"/>
      <use xlink:href="#DejaVuSans-51" transform="translate(2304.375 0)"/>
      <use xlink:href="#DejaVuSans-46" transform="translate(2367.75 0)"/>
      <use xlink:href="#DejaVuSans-48" transform="translate(2422.734375 0)"/>
      <use xlink:href="#DejaVuSans-c" transform="translate(2484.265625 0)"/>
     </g>
    </g>
   </g>
   <g id="line2d_27">
    <path d="M 61.065441 275.79276 
L 73.700093 303.082433 
L 86.334744 303.408188 
L 98.969395 270.459125 
L 111.604046 352.710366 
L 124.238697 275.507146 
L 136.873349 274.074528 
L 149.508 341.981032 
L 162.142651 260.371819 
L 174.777302 293.46824 
L 187.411954 280.625742 
L 200.046605 255.182984 
L 210.755579 369.39952 
M 214.574067 369.39952 
L 225.315907 252.843151 
L 237.950559 262.530523 
L 250.58521 290.248634 
L 263.219861 238.901602 
L 275.854512 300.001425 
L 288.489163 244.132531 
L 301.123815 237.263767 
L 313.758466 304.253687 
L 326.393117 220.121653 
L 339.027768 257.243212 
L 351.66242 229.005642 
L 364.297071 208.715862 
L 376.931722 322.11244 
L 389.566373 191.005706 
L 402.201025 213.443666 
L 414.835676 194.734904 
L 427.470327 159.968112 
L 440.104978 319.015703 
L 452.73963 113.455624 
L 465.374281 81.586779 
L 478.008932 81.955684 
L 490.643583 115.186916 
L 503.278234 340.173731 
L 515.912886 158.777782 
L 528.547537 196.221692 
L 541.182188 211.451448 
L 553.816839 191.82729 
L 566.451491 349.131646 
L 579.086142 208.022668 
L 591.720793 231.57793 
L 604.355444 253.097826 
L 616.990096 220.600706 
L 629.624747 316.394905 
L 642.259398 235.868433 
L 654.894049 246.286019 
L 667.528701 292.289038 
L 680.163352 238.907907 
L 692.798003 297.114111 
L 705.432654 259.992867 
L 718.067305 254.358439 
L 730.701957 359.609349 
L 743.336608 254.41089 
L 755.971259 284.866567 
L 768.60591 288.483072 
L 781.240562 261.031887 
L 793.875213 359.292701 
L 801.39952 307.282097 
" clip-path="url(#p243ded9ec5)" style="fill: none; stroke: #808080; stroke-width: 2; stroke-linecap: square"/>
   </g>
   <g id="line2d_28">
    <path d="M 82.589535 369.39952 
L 86.334744 363.694392 
L 89.838776 369.39952 
M 105.297125 369.39952 
L 111.604046 354.582287 
L 124.238697 355.911318 
L 136.873349 355.105091 
L 149.508 329.386244 
L 162.142651 341.113057 
L 174.777302 308.382832 
L 187.411954 291.863715 
L 200.046605 277.982081 
L 212.681256 243.664516 
L 225.315907 230.09601 
L 237.950559 242.87185 
L 250.58521 300.293658 
L 263.219861 323.560468 
L 275.854512 302.127289 
L 288.489163 354.692351 
L 301.123815 335.805233 
L 313.758466 341.211256 
L 323.054673 369.39952 
M 331.107527 369.39952 
L 339.027768 352.392909 
L 345.707005 369.39952 
" clip-path="url(#p243ded9ec5)" style="fill: none; stroke: #e45756; stroke-width: 1.8; stroke-linecap: square"/>
   </g>
   <g id="line2d_29">
    <path d="M 206.528162 330.198739 
L 206.528162 37.922578 
" clip-path="url(#p243ded9ec5)" style="fill: none; stroke-dasharray: 1.5,2.475; stroke-dashoffset: 0; stroke: #e45756; stroke-opacity: 0.8; stroke-width: 1.5"/>
   </g>
   <g id="line2d_30">
    <path d="M 61.065441 339.197545 
L 73.700093 314.096725 
L 86.334744 296.420935 
L 97.143749 369.39952 
M 100.741196 369.39952 
L 111.604046 293.82852 
L 124.238697 304.515071 
L 136.873349 331.127202 
L 149.508 283.357465 
L 162.142651 331.393559 
L 174.777302 293.563381 
L 187.411954 282.488826 
L 200.046605 355.402278 
L 212.681256 273.066884 
L 225.315907 295.74692 
L 237.950559 294.300731 
L 250.58521 264.058048 
L 263.219861 338.315409 
L 275.854512 261.475346 
L 288.489163 267.945601 
L 301.123815 291.23396 
L 313.758466 243.619573 
L 326.393117 296.610237 
L 339.027768 243.12077 
L 351.66242 238.099202 
L 364.297071 273.171296 
L 376.931722 213.034164 
L 389.566373 251.556918 
L 402.201025 203.610007 
L 414.835676 189.846988 
L 427.470327 187.995604 
L 440.104978 118.0245 
L 452.73963 94.902228 
L 465.374281 98.868499 
L 478.008932 133.305859 
L 490.643583 287.827225 
L 503.278234 189.174926 
L 515.912886 233.90576 
L 528.547537 229.249715 
L 541.182188 220.847709 
L 553.816839 325.500401 
L 566.451491 231.024326 
L 579.086142 265.745591 
L 591.720793 265.92359 
L 604.355444 247.509571 
L 616.990096 352.392087 
L 629.624747 256.97191 
L 642.259398 278.027722 
L 654.894049 297.769244 
L 667.528701 264.143076 
L 680.163352 338.817211 
L 692.798003 278.413885 
L 705.432654 283.571988 
L 718.067305 336.978549 
L 730.701957 277.52204 
L 743.336608 320.349405 
L 755.971259 301.952585 
L 768.60591 287.629651 
L 779.249795 369.39952 
M 783.327102 369.39952 
L 793.875213 292.08498 
L 801.39952 301.909716 
" clip-path="url(#p243ded9ec5)" style="fill: none; stroke: #247ba0; stroke-width: 1.8; stroke-linecap: square"/>
   </g>
   <g id="line2d_31">
    <path d="M 463.989948 330.198739 
L 463.989948 37.922578 
" clip-path="url(#p243ded9ec5)" style="fill: none; stroke-dasharray: 1.5,2.475; stroke-dashoffset: 0; stroke: #247ba0; stroke-opacity: 0.8; stroke-width: 1.5"/>
   </g>
   <g id="line2d_32">
    <path d="M 64.023082 369.39952 
L 73.700093 235.614422 
L 86.334744 254.603307 
L 98.969395 258.610241 
L 111.604046 221.696223 
L 124.238697 323.811731 
L 136.873349 216.23225 
L 149.508 221.388629 
L 162.142651 243.68916 
L 174.777302 189.783232 
L 187.411954 257.97683 
L 200.046605 177.933441 
L 212.681256 168.604105 
L 225.315907 189.856058 
L 237.950559 103.954789 
L 250.58521 82.504138 
L 263.219861 91.237407 
L 275.854512 139.471589 
L 288.489163 198.316213 
L 301.123815 166.030311 
L 313.758466 271.425589 
L 326.393117 188.761333 
L 339.027768 201.868361 
L 351.66242 260.24295 
L 364.297071 204.175865 
L 376.931722 262.091409 
L 389.566373 231.899378 
L 402.201025 228.781513 
L 414.835676 319.962911 
L 427.470327 230.686833 
L 440.104978 269.951491 
L 452.73963 260.969321 
L 465.374281 243.598472 
L 472.886436 369.39952 
M 483.302488 369.39952 
L 490.643583 250.435748 
L 503.278234 270.314359 
L 515.912886 294.051576 
L 528.547537 254.823624 
L 541.182188 327.549916 
L 553.816839 270.823734 
L 566.451491 270.205887 
L 579.086142 353.662438 
L 591.720793 266.633821 
L 604.355444 299.617757 
L 616.990096 298.942126 
L 629.624747 272.62439 
L 642.259398 368.439457 
L 654.894049 283.428321 
L 667.528701 287.317859 
L 680.163352 357.667009 
L 692.798003 280.405547 
L 705.432654 313.173605 
L 718.067305 313.580703 
L 730.701957 284.907381 
L 743.336608 364.627113 
L 755.971259 298.311527 
L 768.60591 295.588324 
L 776.797056 369.39952 
M 785.597974 369.39952 
L 793.875213 293.338845 
L 801.39952 304.979954 
" clip-path="url(#p243ded9ec5)" style="fill: none; stroke: #5c9632; stroke-width: 1.8; stroke-linecap: square"/>
   </g>
   <g id="line2d_33">
    <path d="M 257.706252 330.198739 
L 257.706252 37.922578 
" clip-path="url(#p243ded9ec5)" style="fill: none; stroke-dasharray: 1.5,2.475; stroke-dashoffset: 0; stroke: #5c9632; stroke-opacity: 0.8; stroke-width: 1.5"/>
   </g>
   <g id="patch_3">
    <path d="M 49.305469 330.198739 
L 49.305469 37.922578 
" style="fill: none; stroke: #000000; stroke-width: 0.8; stroke-linejoin: miter; stroke-linecap: square"/>
   </g>
   <g id="patch_4">
    <path d="M 786.83702 330.198739 
L 786.83702 37.922578 
" style="fill: none; stroke: #000000; stroke-width: 0.8; stroke-linejoin: miter; stroke-linecap: square"/>
   </g>
   <g id="patch_5">
    <path d="M 49.305469 330.198739 
L 786.83702 330.198739 
" style="fill: none; stroke: #000000; stroke-width: 0.8; stroke-linejoin: miter; stroke-linecap: square"/>
   </g>
   <g id="patch_6">
    <path d="M 49.305469 37.922578 
L 786.83702 37.922578 
" style="fill: none; stroke: #000000; stroke-width: 0.8; stroke-linejoin: miter; stroke-linecap: square"/>
   </g>
   <g id="text_16">
    <!-- I/Q delay cuts: raised ground arrives earlier -->
    <g transform="translate(287.585307 17.519297) scale(0.12 -0.12)">
     <defs>
      <path id="DejaVuSans-2c" d="M 628 4666 
L 1259 4666 
L 1259 0 
L 628 0 
L 628 4666 
z
" transform="scale(0.015625)"/>
      <path id="DejaVuSans-12" d="M 1625 4666 
L 2156 4666 
L 531 -594 
L 0 -594 
L 1625 4666 
z
" transform="scale(0.015625)"/>
      <path id="DejaVuSans-34" d="M 2522 4238 
Q 1834 4238 1429 3725 
Q 1025 3213 1025 2328 
Q 1025 1447 1429 934 
Q 1834 422 2522 422 
Q 3209 422 3611 934 
Q 4013 1447 4013 2328 
Q 4013 3213 3611 3725 
Q 3209 4238 2522 4238 
z
M 3406 84 
L 4238 -825 
L 3475 -825 
L 2784 -78 
Q 2681 -84 2626 -87 
Q 2572 -91 2522 -91 
Q 1538 -91 948 567 
Q 359 1225 359 2328 
Q 359 3434 948 4092 
Q 1538 4750 2522 4750 
Q 3503 4750 4090 4092 
Q 4678 3434 4678 2328 
Q 4678 1516 4351 937 
Q 4025 359 3406 84 
z
" transform="scale(0.015625)"/>
      <path id="DejaVuSans-5c" d="M 2059 -325 
Q 1816 -950 1584 -1140 
Q 1353 -1331 966 -1331 
L 506 -1331 
L 506 -850 
L 844 -850 
Q 1081 -850 1212 -737 
Q 1344 -625 1503 -206 
L 1606 56 
L 191 3500 
L 800 3500 
L 1894 763 
L 2988 3500 
L 3597 3500 
L 2059 -325 
z
" transform="scale(0.015625)"/>
      <path id="DejaVuSans-1d" d="M 750 794 
L 1409 794 
L 1409 0 
L 750 0 
L 750 794 
z
M 750 3309 
L 1409 3309 
L 1409 2516 
L 750 2516 
L 750 3309 
z
" transform="scale(0.015625)"/>
      <path id="DejaVuSans-4c" d="M 603 3500 
L 1178 3500 
L 1178 0 
L 603 0 
L 603 3500 
z
M 603 4863 
L 1178 4863 
L 1178 4134 
L 603 4134 
L 603 4863 
z
" transform="scale(0.015625)"/>
     </defs>
     <use xlink:href="#DejaVuSans-2c"/>
     <use xlink:href="#DejaVuSans-12" transform="translate(29.5 0)"/>
     <use xlink:href="#DejaVuSans-34" transform="translate(63.1875 0)"/>
     <use xlink:href="#DejaVuSans-3" transform="translate(141.90625 0)"/>
     <use xlink:href="#DejaVuSans-47" transform="translate(173.6875 0)"/>
     <use xlink:href="#DejaVuSans-48" transform="translate(237.171875 0)"/>
     <use xlink:href="#DejaVuSans-4f" transform="translate(298.703125 0)"/>
     <use xlink:href="#DejaVuSans-44" transform="translate(326.484375 0)"/>
     <use xlink:href="#DejaVuSans-5c" transform="translate(387.765625 0)"/>
     <use xlink:href="#DejaVuSans-3" transform="translate(446.953125 0)"/>
     <use xlink:href="#DejaVuSans-46" transform="translate(478.734375 0)"/>
     <use xlink:href="#DejaVuSans-58" transform="translate(533.71875 0)"/>
     <use xlink:href="#DejaVuSans-57" transform="translate(597.09375 0)"/>
     <use xlink:href="#DejaVuSans-56" transform="translate(636.296875 0)"/>
     <use xlink:href="#DejaVuSans-1d" transform="translate(688.390625 0)"/>
     <use xlink:href="#DejaVuSans-3" transform="translate(722.078125 0)"/>
     <use xlink:href="#DejaVuSans-55" transform="translate(753.859375 0)"/>
     <use xlink:href="#DejaVuSans-44" transform="translate(794.96875 0)"/>
     <use xlink:href="#DejaVuSans-4c" transform="translate(856.25 0)"/>
     <use xlink:href="#DejaVuSans-56" transform="translate(884.03125 0)"/>
     <use xlink:href="#DejaVuSans-48" transform="translate(936.125 0)"/>
     <use xlink:href="#DejaVuSans-47" transform="translate(997.65625 0)"/>
     <use xlink:href="#DejaVuSans-3" transform="translate(1061.140625 0)"/>
     <use xlink:href="#DejaVuSans-4a" transform="translate(1092.921875 0)"/>
     <use xlink:href="#DejaVuSans-55" transform="translate(1156.40625 0)"/>
     <use xlink:href="#DejaVuSans-52" transform="translate(1195.3125 0)"/>
     <use xlink:href="#DejaVuSans-58" transform="translate(1256.5 0)"/>
     <use xlink:href="#DejaVuSans-51" transform="translate(1319.875 0)"/>
     <use xlink:href="#DejaVuSans-47" transform="translate(1383.25 0)"/>
     <use xlink:href="#DejaVuSans-3" transform="translate(1446.734375 0)"/>
     <use xlink:href="#DejaVuSans-44" transform="translate(1478.515625 0)"/>
     <use xlink:href="#DejaVuSans-55" transform="translate(1539.796875 0)"/>
     <use xlink:href="#DejaVuSans-55" transform="translate(1579.15625 0)"/>
     <use xlink:href="#DejaVuSans-4c" transform="translate(1620.265625 0)"/>
     <use xlink:href="#DejaVuSans-59" transform="translate(1648.046875 0)"/>
     <use xlink:href="#DejaVuSans-48" transform="translate(1707.234375 0)"/>
     <use xlink:href="#DejaVuSans-56" transform="translate(1768.765625 0)"/>
     <use xlink:href="#DejaVuSans-3" transform="translate(1820.859375 0)"/>
     <use xlink:href="#DejaVuSans-48" transform="translate(1852.640625 0)"/>
     <use xlink:href="#DejaVuSans-44" transform="translate(1914.171875 0)"/>
     <use xlink:href="#DejaVuSans-55" transform="translate(1975.453125 0)"/>
     <use xlink:href="#DejaVuSans-4f" transform="translate(2016.5625 0)"/>
     <use xlink:href="#DejaVuSans-4c" transform="translate(2044.34375 0)"/>
     <use xlink:href="#DejaVuSans-48" transform="translate(2072.125 0)"/>
     <use xlink:href="#DejaVuSans-55" transform="translate(2133.65625 0)"/>
    </g>
    <!-- Dotted lines are geometric midpoint references; they do not generate the I/Q -->
    <g transform="translate(185.782182 31.922578) scale(0.12 -0.12)">
     <defs>
      <path id="DejaVuSans-27" d="M 1259 4147 
L 1259 519 
L 2022 519 
Q 2988 519 3436 956 
Q 3884 1394 3884 2338 
Q 3884 3275 3436 3711 
Q 2988 4147 2022 4147 
L 1259 4147 
z
M 628 4666 
L 1925 4666 
Q 3281 4666 3915 4102 
Q 4550 3538 4550 2338 
Q 4550 1131 3912 565 
Q 3275 0 1925 0 
L 628 0 
L 628 4666 
z
" transform="scale(0.015625)"/>
      <path id="DejaVuSans-1e" d="M 750 3309 
L 1409 3309 
L 1409 2516 
L 750 2516 
L 750 3309 
z
M 750 794 
L 1409 794 
L 1409 256 
L 897 -744 
L 494 -744 
L 750 256 
L 750 794 
z
" transform="scale(0.015625)"/>
     </defs>
     <use xlink:href="#DejaVuSans-27"/>
     <use xlink:href="#DejaVuSans-52" transform="translate(77 0)"/>
     <use xlink:href="#DejaVuSans-57" transform="translate(138.1875 0)"/>
     <use xlink:href="#DejaVuSans-57" transform="translate(177.390625 0)"/>
     <use xlink:href="#DejaVuSans-48" transform="translate(216.59375 0)"/>
     <use xlink:href="#DejaVuSans-47" transform="translate(278.125 0)"/>
     <use xlink:href="#DejaVuSans-3" transform="translate(341.609375 0)"/>
     <use xlink:href="#DejaVuSans-4f" transform="translate(373.390625 0)"/>
     <use xlink:href="#DejaVuSans-4c" transform="translate(401.171875 0)"/>
     <use xlink:href="#DejaVuSans-51" transform="translate(428.953125 0)"/>
     <use xlink:href="#DejaVuSans-48" transform="translate(492.328125 0)"/>
     <use xlink:href="#DejaVuSans-56" transform="translate(553.859375 0)"/>
     <use xlink:href="#DejaVuSans-3" transform="translate(605.953125 0)"/>
     <use xlink:href="#DejaVuSans-44" transform="translate(637.734375 0)"/>
     <use xlink:href="#DejaVuSans-55" transform="translate(699.015625 0)"/>
     <use xlink:href="#DejaVuSans-48" transform="translate(737.921875 0)"/>
     <use xlink:href="#DejaVuSans-3" transform="translate(799.453125 0)"/>
     <use xlink:href="#DejaVuSans-4a" transform="translate(831.234375 0)"/>
     <use xlink:href="#DejaVuSans-48" transform="translate(894.71875 0)"/>
     <use xlink:href="#DejaVuSans-52" transform="translate(956.25 0)"/>
     <use xlink:href="#DejaVuSans-50" transform="translate(1017.4375 0)"/>
     <use xlink:href="#DejaVuSans-48" transform="translate(1114.84375 0)"/>
     <use xlink:href="#DejaVuSans-57" transform="translate(1176.375 0)"/>
     <use xlink:href="#DejaVuSans-55" transform="translate(1215.578125 0)"/>
     <use xlink:href="#DejaVuSans-4c" transform="translate(1256.6875 0)"/>
     <use xlink:href="#DejaVuSans-46" transform="translate(1284.46875 0)"/>
     <use xlink:href="#DejaVuSans-3" transform="translate(1339.453125 0)"/>
     <use xlink:href="#DejaVuSans-50" transform="translate(1371.234375 0)"/>
     <use xlink:href="#DejaVuSans-4c" transform="translate(1468.640625 0)"/>
     <use xlink:href="#DejaVuSans-47" transform="translate(1496.421875 0)"/>
     <use xlink:href="#DejaVuSans-53" transform="translate(1559.90625 0)"/>
     <use xlink:href="#DejaVuSans-52" transform="translate(1623.390625 0)"/>
     <use xlink:href="#DejaVuSans-4c" transform="translate(1684.578125 0)"/>
     <use xlink:href="#DejaVuSans-51" transform="translate(1712.359375 0)"/>
     <use xlink:href="#DejaVuSans-57" transform="translate(1775.734375 0)"/>
     <use xlink:href="#DejaVuSans-3" transform="translate(1814.9375 0)"/>
     <use xlink:href="#DejaVuSans-55" transform="translate(1846.71875 0)"/>
     <use xlink:href="#DejaVuSans-48" transform="translate(1885.625 0)"/>
     <use xlink:href="#DejaVuSans-49" transform="translate(1947.15625 0)"/>
     <use xlink:href="#DejaVuSans-48" transform="translate(1982.359375 0)"/>
     <use xlink:href="#DejaVuSans-55" transform="translate(2043.890625 0)"/>
     <use xlink:href="#DejaVuSans-48" transform="translate(2082.796875 0)"/>
     <use xlink:href="#DejaVuSans-51" transform="translate(2144.328125 0)"/>
     <use xlink:href="#DejaVuSans-46" transform="translate(2207.703125 0)"/>
     <use xlink:href="#DejaVuSans-48" transform="translate(2262.6875 0)"/>
     <use xlink:href="#DejaVuSans-56" transform="translate(2324.21875 0)"/>
     <use xlink:href="#DejaVuSans-1e" transform="translate(2376.3125 0)"/>
     <use xlink:href="#DejaVuSans-3" transform="translate(2410 0)"/>
     <use xlink:href="#DejaVuSans-57" transform="translate(2441.78125 0)"/>
     <use xlink:href="#DejaVuSans-4b" transform="translate(2480.984375 0)"/>
     <use xlink:href="#DejaVuSans-48" transform="translate(2544.359375 0)"/>
     <use xlink:href="#DejaVuSans-5c" transform="translate(2605.890625 0)"/>
     <use xlink:href="#DejaVuSans-3" transform="translate(2665.078125 0)"/>
     <use xlink:href="#DejaVuSans-47" transform="translate(2696.859375 0)"/>
     <use xlink:href="#DejaVuSans-52" transform="translate(2760.34375 0)"/>
     <use xlink:href="#DejaVuSans-3" transform="translate(2821.53125 0)"/>
     <use xlink:href="#DejaVuSans-51" transform="translate(2853.3125 0)"/>
     <use xlink:href="#DejaVuSans-52" transform="translate(2916.6875 0)"/>
     <use xlink:href="#DejaVuSans-57" transform="translate(2977.875 0)"/>
     <use xlink:href="#DejaVuSans-3" transform="translate(3017.078125 0)"/>
     <use xlink:href="#DejaVuSans-4a" transform="translate(3048.859375 0)"/>
     <use xlink:href="#DejaVuSans-48" transform="translate(3112.34375 0)"/>
     <use xlink:href="#DejaVuSans-51" transform="translate(3173.875 0)"/>
     <use xlink:href="#DejaVuSans-48" transform="translate(3237.25 0)"/>
     <use xlink:href="#DejaVuSans-55" transform="translate(3298.78125 0)"/>
     <use xlink:href="#DejaVuSans-44" transform="translate(3339.890625 0)"/>
     <use xlink:href="#DejaVuSans-57" transform="translate(3401.171875 0)"/>
     <use xlink:href="#DejaVuSans-48" transform="translate(3440.375 0)"/>
     <use xlink:href="#DejaVuSans-3" transform="translate(3501.90625 0)"/>
     <use xlink:href="#DejaVuSans-57" transform="translate(3533.6875 0)"/>
     <use xlink:href="#DejaVuSans-4b" transform="translate(3572.890625 0)"/>
     <use xlink:href="#DejaVuSans-48" transform="translate(3636.265625 0)"/>
     <use xlink:href="#DejaVuSans-3" transform="translate(3697.796875 0)"/>
     <use xlink:href="#DejaVuSans-2c" transform="translate(3729.578125 0)"/>
     <use xlink:href="#DejaVuSans-12" transform="translate(3759.078125 0)"/>
     <use xlink:href="#DejaVuSans-34" transform="translate(3792.765625 0)"/>
    </g>
   </g>
   <g id="legend_1">
    <g id="patch_7">
     <path d="M 646.490457 99.125391 
L 780.53702 99.125391 
Q 782.33702 99.125391 782.33702 97.325391 
L 782.33702 44.222578 
Q 782.33702 42.422578 780.53702 42.422578 
L 646.490457 42.422578 
Q 644.690457 42.422578 644.690457 44.222578 
L 644.690457 97.325391 
Q 644.690457 99.125391 646.490457 99.125391 
z
" style="fill: #ffffff; opacity: 0.8; stroke: #cccccc; stroke-linejoin: miter"/>
    </g>
    <g id="line2d_34">
     <path d="M 648.290457 49.711172 
L 657.290457 49.711172 
L 666.290457 49.711172 
" style="fill: none; stroke: #808080; stroke-width: 2; stroke-linecap: square"/>
    </g>
    <g id="text_17">
     <!-- Flat ground -->
     <g transform="translate(673.490457 52.861172) scale(0.09 -0.09)">
      <defs>
       <path id="DejaVuSans-29" d="M 628 4666 
L 3309 4666 
L 3309 4134 
L 1259 4134 
L 1259 2759 
L 3109 2759 
L 3109 2228 
L 1259 2228 
L 1259 0 
L 628 0 
L 628 4666 
z
" transform="scale(0.015625)"/>
      </defs>
      <use xlink:href="#DejaVuSans-29"/>
      <use xlink:href="#DejaVuSans-4f" transform="translate(57.515625 0)"/>
      <use xlink:href="#DejaVuSans-44" transform="translate(85.296875 0)"/>
      <use xlink:href="#DejaVuSans-57" transform="translate(146.578125 0)"/>
      <use xlink:href="#DejaVuSans-3" transform="translate(185.78125 0)"/>
      <use xlink:href="#DejaVuSans-4a" transform="translate(217.5625 0)"/>
      <use xlink:href="#DejaVuSans-55" transform="translate(281.046875 0)"/>
      <use xlink:href="#DejaVuSans-52" transform="translate(319.953125 0)"/>
      <use xlink:href="#DejaVuSans-58" transform="translate(381.140625 0)"/>
      <use xlink:href="#DejaVuSans-51" transform="translate(444.515625 0)"/>
      <use xlink:href="#DejaVuSans-47" transform="translate(507.890625 0)"/>
     </g>
    </g>
    <g id="line2d_35">
     <path d="M 648.290457 63.211875 
L 657.290457 63.211875 
L 666.290457 63.211875 
" style="fill: none; stroke: #e45756; stroke-width: 1.8; stroke-linecap: square"/>
    </g>
    <g id="text_18">
     <!-- A: first hill, h=6.3 m -->
     <g transform="translate(673.490457 66.361875) scale(0.09 -0.09)">
      <defs>
       <path id="DejaVuSans-24" d="M 2188 4044 
L 1331 1722 
L 3047 1722 
L 2188 4044 
z
M 1831 4666 
L 2547 4666 
L 4325 0 
L 3669 0 
L 3244 1197 
L 1141 1197 
L 716 0 
L 50 0 
L 1831 4666 
z
" transform="scale(0.015625)"/>
       <path id="DejaVuSans-13af" d="M 3431 3500 
L 3431 0 
L 2853 0 
L 2853 3053 
L 1275 3053 
L 1275 0 
L 697 0 
L 697 3053 
L 147 3053 
L 147 3500 
L 697 3500 
L 697 3744 
Q 697 4316 967 4589 
Q 1238 4863 1797 4863 
L 2375 4863 
L 2375 4384 
L 1825 4384 
Q 1516 4384 1395 4259 
Q 1275 4134 1275 3809 
L 1275 3500 
L 3431 3500 
z
M 2853 4856 
L 3431 4856 
L 3431 4128 
L 2853 4128 
L 2853 4856 
z
" transform="scale(0.015625)"/>
       <path id="DejaVuSans-20" d="M 678 2906 
L 4684 2906 
L 4684 2381 
L 678 2381 
L 678 2906 
z
M 678 1631 
L 4684 1631 
L 4684 1100 
L 678 1100 
L 678 1631 
z
" transform="scale(0.015625)"/>
       <path id="DejaVuSans-11" d="M 684 794 
L 1344 794 
L 1344 0 
L 684 0 
L 684 794 
z
" transform="scale(0.015625)"/>
      </defs>
      <use xlink:href="#DejaVuSans-24"/>
      <use xlink:href="#DejaVuSans-1d" transform="translate(66.65625 0)"/>
      <use xlink:href="#DejaVuSans-3" transform="translate(100.34375 0)"/>
      <use xlink:href="#DejaVuSans-13af" transform="translate(132.125 0)"/>
      <use xlink:href="#DejaVuSans-55" transform="translate(195.109375 0)"/>
      <use xlink:href="#DejaVuSans-56" transform="translate(236.21875 0)"/>
      <use xlink:href="#DejaVuSans-57" transform="translate(288.3125 0)"/>
      <use xlink:href="#DejaVuSans-3" transform="translate(327.515625 0)"/>
      <use xlink:href="#DejaVuSans-4b" transform="translate(359.296875 0)"/>
      <use xlink:href="#DejaVuSans-4c" transform="translate(422.671875 0)"/>
      <use xlink:href="#DejaVuSans-4f" transform="translate(450.453125 0)"/>
      <use xlink:href="#DejaVuSans-4f" transform="translate(478.234375 0)"/>
      <use xlink:href="#DejaVuSans-f" transform="translate(506.015625 0)"/>
      <use xlink:href="#DejaVuSans-3" transform="translate(537.796875 0)"/>
      <use xlink:href="#DejaVuSans-4b" transform="translate(569.578125 0)"/>
      <use xlink:href="#DejaVuSans-20" transform="translate(632.953125 0)"/>
      <use xlink:href="#DejaVuSans-19" transform="translate(716.75 0)"/>
      <use xlink:href="#DejaVuSans-11" transform="translate(780.375 0)"/>
      <use xlink:href="#DejaVuSans-16" transform="translate(812.15625 0)"/>
      <use xlink:href="#DejaVuSans-3" transform="translate(875.78125 0)"/>
      <use xlink:href="#DejaVuSans-50" transform="translate(907.5625 0)"/>
     </g>
    </g>
    <g id="line2d_36">
     <path d="M 648.290457 76.712578 
L 657.290457 76.712578 
L 666.290457 76.712578 
" style="fill: none; stroke: #247ba0; stroke-width: 1.8; stroke-linecap: square"/>
    </g>
    <g id="text_19">
     <!-- B: swale, h=0.2 m -->
     <g transform="translate(673.490457 79.862578) scale(0.09 -0.09)">
      <use xlink:href="#DejaVuSans-25"/>
      <use xlink:href="#DejaVuSans-1d" transform="translate(68.609375 0)"/>
      <use xlink:href="#DejaVuSans-3" transform="translate(102.296875 0)"/>
      <use xlink:href="#DejaVuSans-56" transform="translate(134.078125 0)"/>
      <use xlink:href="#DejaVuSans-5a" transform="translate(186.171875 0)"/>
      <use xlink:href="#DejaVuSans-44" transform="translate(267.953125 0)"/>
      <use xlink:href="#DejaVuSans-4f" transform="translate(329.234375 0)"/>
      <use xlink:href="#DejaVuSans-48" transform="translate(357.015625 0)"/>
      <use xlink:href="#DejaVuSans-f" transform="translate(418.546875 0)"/>
      <use xlink:href="#DejaVuSans-3" transform="translate(450.328125 0)"/>
      <use xlink:href="#DejaVuSans-4b" transform="translate(482.109375 0)"/>
      <use xlink:href="#DejaVuSans-20" transform="translate(545.484375 0)"/>
      <use xlink:href="#DejaVuSans-13" transform="translate(629.28125 0)"/>
      <use xlink:href="#DejaVuSans-11" transform="translate(692.90625 0)"/>
      <use xlink:href="#DejaVuSans-15" transform="translate(724.6875 0)"/>
      <use xlink:href="#DejaVuSans-3" transform="translate(788.3125 0)"/>
      <use xlink:href="#DejaVuSans-50" transform="translate(820.09375 0)"/>
     </g>
    </g>
    <g id="line2d_37">
     <path d="M 648.290457 90.213281 
L 657.290457 90.213281 
L 666.290457 90.213281 
" style="fill: none; stroke: #5c9632; stroke-width: 1.8; stroke-linecap: square"/>
    </g>
    <g id="text_20">
     <!-- C: second hill, h=5.1 m -->
     <g transform="translate(673.490457 93.363281) scale(0.09 -0.09)">
      <use xlink:href="#DejaVuSans-26"/>
      <use xlink:href="#DejaVuSans-1d" transform="translate(69.828125 0)"/>
      <use xlink:href="#DejaVuSans-3" transform="translate(103.515625 0)"/>
      <use xlink:href="#DejaVuSans-56" transform="translate(135.296875 0)"/>
      <use xlink:href="#DejaVuSans-48" transform="translate(187.390625 0)"/>
      <use xlink:href="#DejaVuSans-46" transform="translate(248.921875 0)"/>
      <use xlink:href="#DejaVuSans-52" transform="translate(303.90625 0)"/>
      <use xlink:href="#DejaVuSans-51" transform="translate(365.09375 0)"/>
      <use xlink:href="#DejaVuSans-47" transform="translate(428.46875 0)"/>
      <use xlink:href="#DejaVuSans-3" transform="translate(491.953125 0)"/>
      <use xlink:href="#DejaVuSans-4b" transform="translate(523.734375 0)"/>
      <use xlink:href="#DejaVuSans-4c" transform="translate(587.109375 0)"/>
      <use xlink:href="#DejaVuSans-4f" transform="translate(614.890625 0)"/>
      <use xlink:href="#DejaVuSans-4f" transform="translate(642.671875 0)"/>
      <use xlink:href="#DejaVuSans-f" transform="translate(670.453125 0)"/>
      <use xlink:href="#DejaVuSans-3" transform="translate(702.234375 0)"/>
      <use xlink:href="#DejaVuSans-4b" transform="translate(734.015625 0)"/>
      <use xlink:href="#DejaVuSans-20" transform="translate(797.390625 0)"/>
      <use xlink:href="#DejaVuSans-18" transform="translate(881.1875 0)"/>
      <use xlink:href="#DejaVuSans-11" transform="translate(944.8125 0)"/>
      <use xlink:href="#DejaVuSans-14" transform="translate(976.59375 0)"/>
      <use xlink:href="#DejaVuSans-3" transform="translate(1040.21875 0)"/>
      <use xlink:href="#DejaVuSans-50" transform="translate(1072 0)"/>
     </g>
    </g>
   </g>
  </g>
 </g>
 <defs>
  <clipPath id="p243ded9ec5">
   <rect x="49.305469" y="37.922578" width="737.531551" height="292.276161"/>
  </clipPath>
 </defs>
</svg>
