ply
format ascii 1.0
element vertex 441
property float x
property float y
property float z
element face 800
property list uchar int vertex_indices
end_header
-100 -100 3.97349738
-90 -100 5.63139324
-80 -100 7.24873873
-70 -100 8.71186755
-60 -100 9.91550364
-50 -100 10.7607775
-40 -100 11.1731494
-30 -100 11.1412672
-20 -100 10.7370099
-10 -100 10.088781
0 -100 9.3367208
10 -100 8.61024013
20 -100 8.02734695
30 -100 7.69352532
40 -100 7.69226417
50 -100 8.07352298
60 -100 8.84622651
70 -100 9.97646602
80 -100 11.3910182
90 -100 12.9853666
100 -100 14.6352023
-100 -90 4.06279062
-90 -90 5.59225067
-80 -90 7.1198833
-70 -90 8.5700347
-60 -90 9.84865473
-50 -90 10.811089
-40 -90 11.3000759
-30 -90 11.2591751
-20 -90 10.7979124
-10 -90 10.1207908
0 -90 9.40866173
10 -90 8.77674268
20 -90 8.30449541
30 -90 8.06409879
40 -90 8.11921677
50 -90 8.51064195
60 -90 9.24551641
70 -90 10.2939857
80 -90 11.5918145
90 -90 13.0473348
100 -90 14.5515206
-100 -80 4.20857818
-90 -80 5.55018505
-80 -80 6.9786411
-70 -80 8.49792516
-60 -80 10.0303035
-50 -80 11.3115301
-40 -80 11.9787242
-30 -80 11.8663102
-20 -80 11.1812037
-10 -80 10.3230743
0 -80 9.58435613
10 -80 9.05926696
20 -80 8.74679332
30 -80 8.64993462
40 -80 8.79325425
50 -80 9.20060533
60 -80 9.87575624
70 -80 10.7951583
80 -80 11.9087512
90 -80 13.1451454
100 -80 14.4194375
-100 -70 4.40604725
-90 -70 5.53712135
-80 -70 6.92633593
-70 -70 8.72086211
-60 -70 10.861022
-50 -70 12.8304256
-40 -70 13.8458066
-30 -70 13.5223468
-20 -70 12.271107
-10 -70 10.8987071
0 -70 9.93943111
10 -70 9.46342121
20 -70 9.32538992
30 -70 9.40486935
40 -70 9.65992359
50 -70 10.0874943
60 -70 10.6858489
70 -70 11.4393495
80 -70 12.3161312
90 -70 13.2708679
100 -70 14.2496623
-100 -60 4.64503664
-90 -60 5.57959097
-80 -60 7.04788537
-70 -60 9.41787704
-60 -60 12.6464457
-50 -60 15.7914937
-40 -60 17.3712088
-30 -60 16.6398844
-20 -60 14.352246
-10 -60 11.9981355
0 -60 10.5258144
10 -60 9.98204759
20 -60 9.99967011
30 -60 10.2688942
40 -60 10.6491348
50 -60 11.0994228
60 -60 11.6101165
70 -60 12.1743303
80 -60 12.7809256
90 -60 13.4143094
100 -60 14.0559602
-100 -50 4.88075492
-90 -50 5.66470535
-80 -50 7.33220263
-70 -50 10.5375162
-60 -50 15.2535079
-50 -50 19.9723163
-40 -50 22.2892768
-30 -50 20.9839456
-20 -50 17.2680225
-10 -50 13.538636
0 -50 11.2985941
10 -50 10.573939
20 -50 10.7151849
30 -50 11.1720181
40 -50 11.6807201
50 -50 12.1543787
60 -50 12.5736509
70 -50 12.9405333
80 -50 13.2654652
90 -50 13.5638489
100 -50 13.8540408
-100 -40 4.58633587
-90 -40 5.48192961
-80 -40 7.50037814
-70 -40 11.6217722
-60 -40 17.8633015
-50 -40 24.1704596
-40 -40 27.2281531
-30 -40 25.3477863
-20 -40 20.1996804
-10 -40 15.0876675
0 -40 12.0692088
10 -40 11.1512687
20 -40 11.4043235
30 -40 12.0394876
40 -40 12.671201
50 -40 13.1672706
60 -40 13.4987647
70 -40 13.676178
80 -40 13.730692
90 -40 13.7074903
100 -40 13.6603372
-100 -30 0.942202309
-90 -30 2.88118166
-80 -30 5.91164508
-70 -30 11.1844816
-60 -30 18.7711922
-50 -30 26.3228746
-40 -30 30
-30 -30 27.8589249
-20 -30 21.8888896
-10 -30 15.9837229
0 -30 12.5566019
10 -30 11.5988521
20 -30 11.9962805
30 -30 12.8011104
40 -30 13.5442024
50 -30 14.0607315
60 -30 14.3148874
70 -30 14.3250968
80 -30 14.1411985
90 -30 13.8348936
100 -30 13.4911809
-100 -20 0
-90 -20 0
-80 -20 0
-70 -20 5.44909413
-60 -20 14.2877251
-50 -20 23.0013863
-40 -20 27.6538302
-30 -20 26.2844892
-20 -20 20.9121917
-10 -20 15.4752132
0 -20 12.4249918
10 -20 11.7757889
20 -20 12.4205489
30 -20 13.4070292
40 -20 14.2562763
50 -20 14.7951738
60 -20 14.9869653
70 -20 14.8592485
80 -20 14.4800906
90 -20 13.944996
100 -20 13.3647346
-100 -10 0
-90 -10 0
-80 -10 0
-70 -10 0
-60 -10 3.76448268
-50 -10 11.6913026
-40 -10 16.8853798
-30 -10 17.3580951
-20 -10 14.5251758
-10 -10 11.5156078
0 -10 10.2949024
10 -10 10.8404873
20 -10 12.2246917
30 -10 13.6646022
40 -10 14.7732677
50 -10 15.4179145
60 -10 15.5883974
70 -10 15.3452109
80 -10 14.7959267
90 -10 14.0726319
100 -10 13.3124444
-100 0 1.08876797
-90 0 0
-80 0 0
-70 0 0
-60 0 0.0664853916
-50 0 3.27713831
-40 0 5.23232983
-30 0 4.78669069
-20 0 3.03268317
-10 0 2.08710942
0 0 3.0841647
10 0 5.672001
20 0 8.86619615
30 0 11.8423456
40 0 14.1316856
50 0 15.5376456
60 0 16.0623315
70 0 15.8633422
80 0 15.1881057
90 0 14.2917182
100 0 13.3819848
-100 10 4.85205418
-90 10 3.94646689
-80 10 3.35896437
-70 10 3.52643726
-60 10 4.48871764
-50 10 5.42114428
-40 10 5.01109561
-30 10 2.73536461
-20 10 0
-10 10 0
0 10 0
10 10 0
20 10 2.103188
30 10 6.03056185
40 10 9.81344304
50 10 12.7525183
60 10 14.4678298
70 10 14.998455
80 10 14.6940084
90 10 13.9837386
100 10 13.2000642
-100 20 5.27070157
-90 20 4.81315774
-80 20 4.64553333
-70 20 5.04344451
-60 20 6.03199021
-50 20 7.12144024
-40 20 7.49702779
-30 20 6.70662359
-20 20 5.10768468
-10 20 3.53447221
0 20 2.67681178
10 20 2.84633417
20 20 4.05258368
30 20 6.018215
40 20 8.16422381
50 20 9.81249489
60 20 10.5681586
70 20 10.5422505
80 20 10.195154
90 20 9.96857144
100 20 10.0458394
-100 30 5.13721288
-90 30 4.86078622
-80 30 4.74530607
-70 30 4.96203833
-60 30 5.57091566
-50 30 6.39877913
-40 30 7.1173919
-30 30 7.54404891
-20 30 7.84527921
-10 30 8.40787109
0 30 9.57378219
10 30 11.4872304
20 30 13.9883195
30 30 16.4730242
40 30 17.939529
50 30 17.4535914
60 30 14.8110983
70 30 10.8122871
80 30 6.83786649
90 30 4.07436472
100 30 3.009311
-100 40 4.954047
-90 40 4.93224361
-80 40 4.98126126
-70 40 5.188254
-60 40 5.59638204
-50 40 6.15895958
-40 40 6.77236367
-30 40 7.40069013
-20 40 8.17713141
-10 40 9.38855138
0 40 11.3824239
10 40 14.4223466
20 40 18.4301722
30 40 22.6901966
40 40 25.8559253
50 40 26.5213016
60 40 24.0747249
70 40 19.1329303
80 40 13.1613639
90 40 7.64399059
100 40 3.49196695
-100 50 4.75466395
-90 50 5.05292286
-80 50 5.3743242
-70 50 5.74793917
-60 50 6.18886731
-50 50 6.68439414
-40 50 7.20763394
-30 50 7.7664934
-20 50 8.45586131
-10 50 9.4804868
0 50 11.1351829
10 50 13.6985769
20 50 17.1894945
30 50 21.0875305
40 50 24.32062
50 50 25.7325562
60 50 24.7839892
70 50 21.8945933
80 50 18.106731
90 50 14.3966068
100 50 11.2289224
-100 60 4.55082398
-90 60 5.19465915
-80 60 5.83428045
-70 60 6.45409446
-60 60 7.0385877
-50 60 7.57122139
-40 60 8.04138387
-30 60 8.46337596
-20 60 8.90117232
-10 60 9.4886448
0 60 10.4274387
10 60 11.9221001
20 60 14.0221151
30 60 16.4425111
40 60 18.5540472
50 60 19.6729176
60 60 19.494701
70 60 18.3036445
80 60 16.7570741
90 60 15.4451144
100 60 14.5960397
-100 70 4.35657369
-90 70 5.33587075
-80 70 6.29204416
-70 70 7.17188035
-60 70 7.93013558
-50 70 8.53405876
-40 70 8.9688847
-30 70 9.24564492
-20 70 9.41067075
-10 70 9.55386162
0 70 9.80628014
10 70 10.3069779
20 70 11.1260534
30 70 12.1781457
40 70 13.2133816
50 70 13.9444535
60 70 14.2402694
70 70 14.2206723
80 70 14.1622977
90 70 14.3049922
100 70 14.7238687
-100 80 4.18666667
-90 80 5.46105711
-80 80 6.69773255
-70 80 7.81192595
-60 80 8.73228231
-50 80 9.40867517
-40 80 9.81828339
-30 80 9.9698716
-20 80 9.90616899
-10 80 9.70368065
0 80 9.46695979
10 80 9.31103895
20 80 9.32854592
30 80 9.55370339
40 80 9.95252661
50 80 10.4590796
60 80 11.0356358
70 80 11.7030897
80 80 12.512375
90 80 13.4859057
100 80 14.5824963
-100 90 4.05455692
-90 90 5.55875902
-80 90 7.01432606
-70 90 8.31225525
-60 90 9.36088805
-50 90 10.096003
-40 90 10.4880118
-30 90 10.5456093
-20 90 10.3155918
-10 90 9.8787921
0 90 9.34184507
10 90 8.82401969
20 90 8.4392865
30 90 8.27764719
40 90 8.39379507
50 90 8.80879981
60 90 9.52032385
70 90 10.5091023
80 90 11.7348392
90 90 13.1281028
100 90 14.5902587
-100 100 3.97087065
-90 100 5.62070868
-80 100 7.21506368
-70 100 8.62963007
-60 100 9.75989342
-50 100 10.5326373
-40 100 10.9140247
-30 100 10.9133886
-20 100 10.5823367
-10 100 10.0092585
0 100 9.30971087
10 100 8.61345141
20 100 8.0493269
30 100 7.73003471
40 100 7.73946994
50 100 8.12481562
60 100 8.89350537
70 100 10.0134757
80 100 11.4156249
90 100 12.9992624
100 100 14.6418675
3 0 1 22
3 0 22 21
3 1 2 23
3 1 23 22
3 2 3 24
3 2 24 23
3 3 4 25
3 3 25 24
3 4 5 26
3 4 26 25
3 5 6 27
3 5 27 26
3 6 7 28
3 6 28 27
3 7 8 29
3 7 29 28
3 8 9 30
3 8 30 29
3 9 10 31
3 9 31 30
3 10 11 32
3 10 32 31
3 11 12 33
3 11 33 32
3 12 13 34
3 12 34 33
3 13 14 35
3 13 35 34
3 14 15 36
3 14 36 35
3 15 16 37
3 15 37 36
3 16 17 38
3 16 38 37
3 17 18 39
3 17 39 38
3 18 19 40
3 18 40 39
3 19 20 41
3 19 41 40
3 21 22 43
3 21 43 42
3 22 23 44
3 22 44 43
3 23 24 45
3 23 45 44
3 24 25 46
3 24 46 45
3 25 26 47
3 25 47 46
3 26 27 48
3 26 48 47
3 27 28 49
3 27 49 48
3 28 29 50
3 28 50 49
3 29 30 51
3 29 51 50
3 30 31 52
3 30 52 51
3 31 32 53
3 31 53 52
3 32 33 54
3 32 54 53
3 33 34 55
3 33 55 54
3 34 35 56
3 34 56 55
3 35 36 57
3 35 57 56
3 36 37 58
3 36 58 57
3 37 38 59
3 37 59 58
3 38 39 60
3 38 60 59
3 39 40 61
3 39 61 60
3 40 41 62
3 40 62 61
3 42 43 64
3 42 64 63
3 43 44 65
3 43 65 64
3 44 45 66
3 44 66 65
3 45 46 67
3 45 67 66
3 46 47 68
3 46 68 67
3 47 48 69
3 47 69 68
3 48 49 70
3 48 70 69
3 49 50 71
3 49 71 70
3 50 51 72
3 50 72 71
3 51 52 73
3 51 73 72
3 52 53 74
3 52 74 73
3 53 54 75
3 53 75 74
3 54 55 76
3 54 76 75
3 55 56 77
3 55 77 76
3 56 57 78
3 56 78 77
3 57 58 79
3 57 79 78
3 58 59 80
3 58 80 79
3 59 60 81
3 59 81 80
3 60 61 82
3 60 82 81
3 61 62 83
3 61 83 82
3 63 64 85
3 63 85 84
3 64 65 86
3 64 86 85
3 65 66 87
3 65 87 86
3 66 67 88
3 66 88 87
3 67 68 89
3 67 89 88
3 68 69 90
3 68 90 89
3 69 70 91
3 69 91 90
3 70 71 92
3 70 92 91
3 71 72 93
3 71 93 92
3 72 73 94
3 72 94 93
3 73 74 95
3 73 95 94
3 74 75 96
3 74 96 95
3 75 76 97
3 75 97 96
3 76 77 98
3 76 98 97
3 77 78 99
3 77 99 98
3 78 79 100
3 78 100 99
3 79 80 101
3 79 101 100
3 80 81 102
3 80 102 101
3 81 82 103
3 81 103 102
3 82 83 104
3 82 104 103
3 84 85 106
3 84 106 105
3 85 86 107
3 85 107 106
3 86 87 108
3 86 108 107
3 87 88 109
3 87 109 108
3 88 89 110
3 88 110 109
3 89 90 111
3 89 111 110
3 90 91 112
3 90 112 111
3 91 92 113
3 91 113 112
3 92 93 114
3 92 114 113
3 93 94 115
3 93 115 114
3 94 95 116
3 94 116 115
3 95 96 117
3 95 117 116
3 96 97 118
3 96 118 117
3 97 98 119
3 97 119 118
3 98 99 120
3 98 120 119
3 99 100 121
3 99 121 120
3 100 101 122
3 100 122 121
3 101 102 123
3 101 123 122
3 102 103 124
3 102 124 123
3 103 104 125
3 103 125 124
3 105 106 127
3 105 127 126
3 106 107 128
3 106 128 127
3 107 108 129
3 107 129 128
3 108 109 130
3 108 130 129
3 109 110 131
3 109 131 130
3 110 111 132
3 110 132 131
3 111 112 133
3 111 133 132
3 112 113 134
3 112 134 133
3 113 114 135
3 113 135 134
3 114 115 136
3 114 136 135
3 115 116 137
3 115 137 136
3 116 117 138
3 116 138 137
3 117 118 139
3 117 139 138
3 118 119 140
3 118 140 139
3 119 120 141
3 119 141 140
3 120 121 142
3 120 142 141
3 121 122 143
3 121 143 142
3 122 123 144
3 122 144 143
3 123 124 145
3 123 145 144
3 124 125 146
3 124 146 145
3 126 127 148
3 126 148 147
3 127 128 149
3 127 149 148
3 128 129 150
3 128 150 149
3 129 130 151
3 129 151 150
3 130 131 152
3 130 152 151
3 131 132 153
3 131 153 152
3 132 133 154
3 132 154 153
3 133 134 155
3 133 155 154
3 134 135 156
3 134 156 155
3 135 136 157
3 135 157 156
3 136 137 158
3 136 158 157
3 137 138 159
3 137 159 158
3 138 139 160
3 138 160 159
3 139 140 161
3 139 161 160
3 140 141 162
3 140 162 161
3 141 142 163
3 141 163 162
3 142 143 164
3 142 164 163
3 143 144 165
3 143 165 164
3 144 145 166
3 144 166 165
3 145 146 167
3 145 167 166
3 147 148 169
3 147 169 168
3 148 149 170
3 148 170 169
3 149 150 171
3 149 171 170
3 150 151 172
3 150 172 171
3 151 152 173
3 151 173 172
3 152 153 174
3 152 174 173
3 153 154 175
3 153 175 174
3 154 155 176
3 154 176 175
3 155 156 177
3 155 177 176
3 156 157 178
3 156 178 177
3 157 158 179
3 157 179 178
3 158 159 180
3 158 180 179
3 159 160 181
3 159 181 180
3 160 161 182
3 160 182 181
3 161 162 183
3 161 183 182
3 162 163 184
3 162 184 183
3 163 164 185
3 163 185 184
3 164 165 186
3 164 186 185
3 165 166 187
3 165 187 186
3 166 167 188
3 166 188 187
3 168 169 190
3 168 190 189
3 169 170 191
3 169 191 190
3 170 171 192
3 170 192 191
3 171 172 193
3 171 193 192
3 172 173 194
3 172 194 193
3 173 174 195
3 173 195 194
3 174 175 196
3 174 196 195
3 175 176 197
3 175 197 196
3 176 177 198
3 176 198 197
3 177 178 199
3 177 199 198
3 178 179 200
3 178 200 199
3 179 180 201
3 179 201 200
3 180 181 202
3 180 202 201
3 181 182 203
3 181 203 202
3 182 183 204
3 182 204 203
3 183 184 205
3 183 205 204
3 184 185 206
3 184 206 205
3 185 186 207
3 185 207 206
3 186 187 208
3 186 208 207
3 187 188 209
3 187 209 208
3 189 190 211
3 189 211 210
3 190 191 212
3 190 212 211
3 191 192 213
3 191 213 212
3 192 193 214
3 192 214 213
3 193 194 215
3 193 215 214
3 194 195 216
3 194 216 215
3 195 196 217
3 195 217 216
3 196 197 218
3 196 218 217
3 197 198 219
3 197 219 218
3 198 199 220
3 198 220 219
3 199 200 221
3 199 221 220
3 200 201 222
3 200 222 221
3 201 202 223
3 201 223 222
3 202 203 224
3 202 224 223
3 203 204 225
3 203 225 224
3 204 205 226
3 204 226 225
3 205 206 227
3 205 227 226
3 206 207 228
3 206 228 227
3 207 208 229
3 207 229 228
3 208 209 230
3 208 230 229
3 210 211 232
3 210 232 231
3 211 212 233
3 211 233 232
3 212 213 234
3 212 234 233
3 213 214 235
3 213 235 234
3 214 215 236
3 214 236 235
3 215 216 237
3 215 237 236
3 216 217 238
3 216 238 237
3 217 218 239
3 217 239 238
3 218 219 240
3 218 240 239
3 219 220 241
3 219 241 240
3 220 221 242
3 220 242 241
3 221 222 243
3 221 243 242
3 222 223 244
3 222 244 243
3 223 224 245
3 223 245 244
3 224 225 246
3 224 246 245
3 225 226 247
3 225 247 246
3 226 227 248
3 226 248 247
3 227 228 249
3 227 249 248
3 228 229 250
3 228 250 249
3 229 230 251
3 229 251 250
3 231 232 253
3 231 253 252
3 232 233 254
3 232 254 253
3 233 234 255
3 233 255 254
3 234 235 256
3 234 256 255
3 235 236 257
3 235 257 256
3 236 237 258
3 236 258 257
3 237 238 259
3 237 259 258
3 238 239 260
3 238 260 259
3 239 240 261
3 239 261 260
3 240 241 262
3 240 262 261
3 241 242 263
3 241 263 262
3 242 243 264
3 242 264 263
3 243 244 265
3 243 265 264
3 244 245 266
3 244 266 265
3 245 246 267
3 245 267 266
3 246 247 268
3 246 268 267
3 247 248 269
3 247 269 268
3 248 249 270
3 248 270 269
3 249 250 271
3 249 271 270
3 250 251 272
3 250 272 271
3 252 253 274
3 252 274 273
3 253 254 275
3 253 275 274
3 254 255 276
3 254 276 275
3 255 256 277
3 255 277 276
3 256 257 278
3 256 278 277
3 257 258 279
3 257 279 278
3 258 259 280
3 258 280 279
3 259 260 281
3 259 281 280
3 260 261 282
3 260 282 281
3 261 262 283
3 261 283 282
3 262 263 284
3 262 284 283
3 263 264 285
3 263 285 284
3 264 265 286
3 264 286 285
3 265 266 287
3 265 287 286
3 266 267 288
3 266 288 287
3 267 268 289
3 267 289 288
3 268 269 290
3 268 290 289
3 269 270 291
3 269 291 290
3 270 271 292
3 270 292 291
3 271 272 293
3 271 293 292
3 273 274 295
3 273 295 294
3 274 275 296
3 274 296 295
3 275 276 297
3 275 297 296
3 276 277 298
3 276 298 297
3 277 278 299
3 277 299 298
3 278 279 300
3 278 300 299
3 279 280 301
3 279 301 300
3 280 281 302
3 280 302 301
3 281 282 303
3 281 303 302
3 282 283 304
3 282 304 303
3 283 284 305
3 283 305 304
3 284 285 306
3 284 306 305
3 285 286 307
3 285 307 306
3 286 287 308
3 286 308 307
3 287 288 309
3 287 309 308
3 288 289 310
3 288 310 309
3 289 290 311
3 289 311 310
3 290 291 312
3 290 312 311
3 291 292 313
3 291 313 312
3 292 293 314
3 292 314 313
3 294 295 316
3 294 316 315
3 295 296 317
3 295 317 316
3 296 297 318
3 296 318 317
3 297 298 319
3 297 319 318
3 298 299 320
3 298 320 319
3 299 300 321
3 299 321 320
3 300 301 322
3 300 322 321
3 301 302 323
3 301 323 322
3 302 303 324
3 302 324 323
3 303 304 325
3 303 325 324
3 304 305 326
3 304 326 325
3 305 306 327
3 305 327 326
3 306 307 328
3 306 328 327
3 307 308 329
3 307 329 328
3 308 309 330
3 308 330 329
3 309 310 331
3 309 331 330
3 310 311 332
3 310 332 331
3 311 312 333
3 311 333 332
3 312 313 334
3 312 334 333
3 313 314 335
3 313 335 334
3 315 316 337
3 315 337 336
3 316 317 338
3 316 338 337
3 317 318 339
3 317 339 338
3 318 319 340
3 318 340 339
3 319 320 341
3 319 341 340
3 320 321 342
3 320 342 341
3 321 322 343
3 321 343 342
3 322 323 344
3 322 344 343
3 323 324 345
3 323 345 344
3 324 325 346
3 324 346 345
3 325 326 347
3 325 347 346
3 326 327 348
3 326 348 347
3 327 328 349
3 327 349 348
3 328 329 350
3 328 350 349
3 329 330 351
3 329 351 350
3 330 331 352
3 330 352 351
3 331 332 353
3 331 353 352
3 332 333 354
3 332 354 353
3 333 334 355
3 333 355 354
3 334 335 356
3 334 356 355
3 336 337 358
3 336 358 357
3 337 338 359
3 337 359 358
3 338 339 360
3 338 360 359
3 339 340 361
3 339 361 360
3 340 341 362
3 340 362 361
3 341 342 363
3 341 363 362
3 342 343 364
3 342 364 363
3 343 344 365
3 343 365 364
3 344 345 366
3 344 366 365
3 345 346 367
3 345 367 366
3 346 347 368
3 346 368 367
3 347 348 369
3 347 369 368
3 348 349 370
3 348 370 369
3 349 350 371
3 349 371 370
3 350 351 372
3 350 372 371
3 351 352 373
3 351 373 372
3 352 353 374
3 352 374 373
3 353 354 375
3 353 375 374
3 354 355 376
3 354 376 375
3 355 356 377
3 355 377 376
3 357 358 379
3 357 379 378
3 358 359 380
3 358 380 379
3 359 360 381
3 359 381 380
3 360 361 382
3 360 382 381
3 361 362 383
3 361 383 382
3 362 363 384
3 362 384 383
3 363 364 385
3 363 385 384
3 364 365 386
3 364 386 385
3 365 366 387
3 365 387 386
3 366 367 388
3 366 388 387
3 367 368 389
3 367 389 388
3 368 369 390
3 368 390 389
3 369 370 391
3 369 391 390
3 370 371 392
3 370 392 391
3 371 372 393
3 371 393 392
3 372 373 394
3 372 394 393
3 373 374 395
3 373 395 394
3 374 375 396
3 374 396 395
3 375 376 397
3 375 397 396
3 376 377 398
3 376 398 397
3 378 379 400
3 378 400 399
3 379 380 401
3 379 401 400
3 380 381 402
3 380 402 401
3 381 382 403
3 381 403 402
3 382 383 404
3 382 404 403
3 383 384 405
3 383 405 404
3 384 385 406
3 384 406 405
3 385 386 407
3 385 407 406
3 386 387 408
3 386 408 407
3 387 388 409
3 387 409 408
3 388 389 410
3 388 410 409
3 389 390 411
3 389 411 410
3 390 391 412
3 390 412 411
3 391 392 413
3 391 413 412
3 392 393 414
3 392 414 413
3 393 394 415
3 393 415 414
3 394 395 416
3 394 416 415
3 395 396 417
3 395 417 416
3 396 397 418
3 396 418 417
3 397 398 419
3 397 419 418
3 399 400 421
3 399 421 420
3 400 401 422
3 400 422 421
3 401 402 423
3 401 423 422
3 402 403 424
3 402 424 423
3 403 404 425
3 403 425 424
3 404 405 426
3 404 426 425
3 405 406 427
3 405 427 426
3 406 407 428
3 406 428 427
3 407 408 429
3 407 429 428
3 408 409 430
3 408 430 429
3 409 410 431
3 409 431 430
3 410 411 432
3 410 432 431
3 411 412 433
3 411 433 432
3 412 413 434
3 412 434 433
3 413 414 435
3 413 435 434
3 414 415 436
3 414 436 435
3 415 416 437
3 415 437 436
3 416 417 438
3 416 438 437
3 417 418 439
3 417 439 438
3 418 419 440
3 418 440 439
